Diplomata-Regular.otf.ufo
<glyph name="quotedbl" format="1">
  <advance width="794"/>
  <unicode hex="0022"/>
  <outline>
    <contour>
      <point x="361" y="594" type="curve" smooth="yes" name="hr00"/>
      <point x="361" y="533" smooth="yes"/>
      <point x="243" y="293" smooth="yes"/>
      <point x="205" y="293" type="curve" smooth="yes"/>
      <point x="169" y="293" smooth="yes"/>
      <point x="50" y="533" smooth="yes"/>
      <point x="50" y="594" type="curve" smooth="yes"/>
      <point x="50" y="654" smooth="yes"/>
      <point x="105" y="687" smooth="yes"/>
      <point x="205" y="687" type="curve" smooth="yes"/>
      <point x="305" y="687" smooth="yes"/>
      <point x="361" y="654" smooth="yes"/>
    </contour>
    <contour>
      <point x="157" y="657" type="line"/>
      <point x="120" y="648" smooth="yes"/>
      <point x="102" y="629" smooth="yes"/>
      <point x="102" y="604" type="curve" smooth="yes"/>
      <point x="102" y="562"/>
      <point x="165" y="405"/>
      <point x="205" y="335" type="curve"/>
      <point x="229" y="374" type="line"/>
      <point x="191" y="450" smooth="yes"/>
      <point x="140" y="576" smooth="yes"/>
      <point x="139" y="614" type="curve" smooth="yes"/>
      <point x="139" y="626"/>
      <point x="145" y="640"/>
      <point x="159" y="651" type="curve"/>
    </contour>
    <contour>
      <point x="744" y="594" type="curve" smooth="yes"/>
      <point x="744" y="533" smooth="yes"/>
      <point x="626" y="293" smooth="yes"/>
      <point x="588" y="293" type="curve" smooth="yes"/>
      <point x="552" y="293" smooth="yes"/>
      <point x="433" y="533" smooth="yes"/>
      <point x="433" y="594" type="curve" smooth="yes"/>
      <point x="433" y="654" smooth="yes"/>
      <point x="488" y="687" smooth="yes"/>
      <point x="588" y="687" type="curve" smooth="yes"/>
      <point x="687" y="687" smooth="yes"/>
      <point x="744" y="654" smooth="yes"/>
    </contour>
    <contour>
      <point x="540" y="657" type="line"/>
      <point x="503" y="648" smooth="yes"/>
      <point x="485" y="629" smooth="yes"/>
      <point x="485" y="604" type="curve" smooth="yes"/>
      <point x="485" y="562"/>
      <point x="548" y="405"/>
      <point x="588" y="335" type="curve"/>
      <point x="612" y="374" type="line"/>
      <point x="573" y="450" smooth="yes"/>
      <point x="523" y="576" smooth="yes"/>
      <point x="522" y="614" type="curve" smooth="yes"/>
      <point x="522" y="626"/>
      <point x="528" y="640"/>
      <point x="542" y="651" type="curve"/>
    </contour>
  </outline>
</glyph>
<glyph name="parenright" format="1">
  <advance width="800"/>
  <unicode hex="0029"/>
  <outline>
    <contour>
      <point x="301" y="308" type="curve" smooth="yes" name="hr00"/>
      <point x="301" y="-47"/>
      <point x="115" y="-63"/>
      <point x="115" y="-63" type="curve"/>
      <point x="115" y="-117" type="line"/>
      <point x="465" y="-64" smooth="yes"/>
      <point x="679" y="94" smooth="yes"/>
      <point x="679" y="310" type="curve" smooth="yes"/>
      <point x="679" y="526"/>
      <point x="465" y="684"/>
      <point x="115" y="737" type="curve"/>
      <point x="115" y="683" type="line"/>
      <point x="115" y="683" smooth="yes"/>
      <point x="301" y="667" smooth="yes"/>
    </contour>
    <contour>
      <point x="436" y="308" type="curve" smooth="yes"/>
      <point x="436" y="122"/>
      <point x="326" y="8"/>
      <point x="268" y="-31" type="curve"/>
      <point x="261" y="-25" type="line"/>
      <point x="304" y="16" smooth="yes"/>
      <point x="363" y="109" smooth="yes"/>
      <point x="363" y="308" type="curve" smooth="yes"/>
      <point x="363" y="507"/>
      <point x="304" y="600"/>
      <point x="261" y="641" type="curve"/>
      <point x="268" y="647" type="line"/>
      <point x="326" y="608" smooth="yes"/>
      <point x="436" y="494" smooth="yes"/>
    </contour>
  </outline>
</glyph>
<glyph name="plus" format="1">
  <advance width="740"/>
  <unicode hex="002B"/>
  <outline>
    <contour>
      <point x="640" y="378" type="line" name="hr00"/>
      <point x="100" y="378" type="line"/>
      <point x="100" y="298" type="line"/>
      <point x="640" y="298" type="line"/>
    </contour>
    <contour>
      <point x="330" y="608" type="line"/>
      <point x="330" y="68" type="line"/>
      <point x="410" y="68" type="line"/>
      <point x="410" y="608" type="line"/>
    </contour>
  </outline>
</glyph>
<glyph name="hyphen" format="1">
  <advance width="740"/>
  <unicode hex="002D"/>
  <outline>
    <contour>
      <point x="640" y="343" type="line" name="hr00"/>
      <point x="100" y="343" type="line"/>
      <point x="100" y="263" type="line"/>
      <point x="640" y="263" type="line"/>
    </contour>
  </outline>
</glyph>
<glyph name="three" format="1">
  <advance width="1025"/>
  <unicode hex="0033"/>
  <outline>
    <contour>
      <point x="592" y="350" type="curve"/>
      <point x="771" y="367" smooth="yes"/>
      <point x="904" y="428" smooth="yes"/>
      <point x="904" y="499" type="curve" smooth="yes"/>
      <point x="904" y="586" smooth="yes"/>
      <point x="740" y="670" smooth="yes"/>
      <point x="481" y="670" type="curve" smooth="yes"/>
      <point x="316" y="670"/>
      <point x="222" y="629"/>
      <point x="120" y="583" type="curve"/>
      <point x="120" y="625" type="line"/>
      <point x="85" y="625" type="line"/>
      <point x="85" y="434" type="line"/>
      <point x="120" y="434" type="line"/>
      <point x="184" y="565" smooth="yes"/>
      <point x="321" y="630" smooth="yes"/>
      <point x="442" y="630" type="curve" smooth="yes"/>
      <point x="553" y="630" smooth="yes"/>
      <point x="598" y="565" smooth="yes"/>
      <point x="598" y="497" type="curve" smooth="yes" name="hr01"/>
      <point x="598" y="423" smooth="yes"/>
      <point x="540" y="371" smooth="yes"/>
      <point x="442" y="371" type="curve" smooth="yes"/>
      <point x="369" y="371"/>
      <point x="303" y="386"/>
      <point x="303" y="459" type="curve"/>
      <point x="269" y="459" type="line"/>
      <point x="269" y="236" type="line"/>
      <point x="303" y="236" type="line"/>
      <point x="303" y="304" smooth="yes"/>
      <point x="378" y="334" smooth="yes"/>
      <point x="467" y="334" type="curve" smooth="yes"/>
      <point x="572" y="334" smooth="yes"/>
      <point x="638" y="270" smooth="yes"/>
      <point x="638" y="175" type="curve" smooth="yes" name="hr02"/>
      <point x="638" y="88" smooth="yes"/>
      <point x="572" y="18" smooth="yes"/>
      <point x="464" y="18" type="curve" smooth="yes"/>
      <point x="297" y="18"/>
      <point x="128" y="105"/>
      <point x="87" y="213" type="curve"/>
      <point x="52" y="213" type="line"/>
      <point x="52" y="6" type="line"/>
      <point x="87" y="6" type="line"/>
      <point x="87" y="49" type="line"/>
      <point x="177" y="10" smooth="yes"/>
      <point x="323" y="-22" smooth="yes"/>
      <point x="481" y="-22" type="curve" smooth="yes"/>
      <point x="753" y="-22" smooth="yes"/>
      <point x="974" y="66" smooth="yes"/>
      <point x="974" y="173" type="curve" smooth="yes" name="hr03"/>
      <point x="974" y="266"/>
      <point x="829" y="334"/>
    </contour>
    <contour>
      <point x="655" y="37" type="line"/>
      <point x="680" y="79" smooth="yes"/>
      <point x="687" y="130" smooth="yes"/>
      <point x="687" y="170" type="curve" smooth="yes"/>
      <point x="687" y="210"/>
      <point x="680" y="260"/>
      <point x="655" y="302" type="curve"/>
      <point x="659" y="307" type="line"/>
      <point x="704" y="271" smooth="yes"/>
      <point x="735" y="221" smooth="yes"/>
      <point x="735" y="170" type="curve" smooth="yes"/>
      <point x="735" y="119"/>
      <point x="703" y="68"/>
      <point x="659" y="33" type="curve"/>
    </contour>
    <contour>
      <point x="701" y="501" type="curve" smooth="yes" name="hr04"/>
      <point x="701" y="458"/>
      <point x="670" y="413"/>
      <point x="624" y="384" type="curve"/>
      <point x="619" y="387" type="line"/>
      <point x="639" y="422" smooth="yes"/>
      <point x="652" y="462" smooth="yes"/>
      <point x="652" y="501" type="curve" smooth="yes"/>
      <point x="652" y="540"/>
      <point x="639" y="580"/>
      <point x="619" y="615" type="curve"/>
      <point x="624" y="618" type="line"/>
      <point x="670" y="589" smooth="yes"/>
      <point x="701" y="544" smooth="yes"/>
    </contour>
  </outline>
</glyph>
<glyph name="five" format="1">
  <advance width="1020"/>
  <unicode hex="0035"/>
  <outline>
    <contour>
      <point x="958" y="211" type="curve"/>
      <point x="958" y="38" smooth="yes"/>
      <point x="664" y="-22" smooth="yes"/>
      <point x="442" y="-22" type="curve" smooth="yes"/>
      <point x="233" y="-22"/>
      <point x="85" y="43"/>
      <point x="85" y="43" type="curve"/>
      <point x="85" y="0" type="line"/>
      <point x="50" y="0" type="line"/>
      <point x="50" y="199" type="line"/>
      <point x="85" y="199" type="line"/>
      <point x="153" y="117" smooth="yes"/>
      <point x="248" y="18" smooth="yes"/>
      <point x="440" y="18" type="curve" smooth="yes"/>
      <point x="598" y="18" smooth="yes"/>
      <point x="622" y="131" smooth="yes"/>
      <point x="622" y="197" type="curve" smooth="yes"/>
      <point x="622" y="263" smooth="yes"/>
      <point x="602" y="383" smooth="yes"/>
      <point x="370" y="383" type="curve" smooth="yes"/>
      <point x="184" y="383"/>
      <point x="66" y="263"/>
      <point x="66" y="263" type="curve"/>
      <point x="49" y="279" type="line"/>
      <point x="351" y="663" type="line" name="hr01"/>
      <point x="371" y="663" type="line" name="hr02"/>
      <point x="371" y="663"/>
      <point x="374" y="650"/>
      <point x="449" y="650" type="curve"/>
      <point x="886" y="650" type="line" name="hr03"/>
      <point x="938" y="650"/>
      <point x="948" y="663"/>
      <point x="948" y="663" type="curve"/>
      <point x="971" y="650" type="line"/>
      <point x="718" y="525" type="line"/>
      <point x="287" y="525" type="line"/>
      <point x="166" y="370" type="line"/>
      <point x="265" y="409" smooth="yes"/>
      <point x="341" y="436" smooth="yes"/>
      <point x="511" y="436" type="curve" smooth="yes"/>
      <point x="680" y="436" smooth="yes"/>
      <point x="958" y="385" smooth="yes"/>
    </contour>
    <contour>
      <point x="584" y="383" type="line"/>
      <point x="584" y="383" smooth="yes"/>
      <point x="667" y="337" smooth="yes"/>
      <point x="667" y="200" type="curve" smooth="yes"/>
      <point x="667" y="63" smooth="yes"/>
      <point x="605" y="22" smooth="yes"/>
      <point x="605" y="22" type="curve" smooth="yes"/>
      <point x="606" y="18" type="line" smooth="yes"/>
      <point x="606" y="18" smooth="yes"/>
      <point x="717" y="41" smooth="yes"/>
      <point x="717" y="202" type="curve" smooth="yes"/>
      <point x="717" y="360" smooth="yes"/>
      <point x="586" y="388" smooth="yes"/>
      <point x="586" y="387" type="curve" smooth="yes"/>
    </contour>
  </outline>
</glyph>
<glyph name="nine" format="1">
  <advance width="1087"/>
  <unicode hex="0039"/>
  <outline>
    <contour>
      <point x="179" y="-7" type="line" name="hr00"/>
      <point x="144" y="-7" type="line"/>
      <point x="144" y="158" type="line"/>
      <point x="179" y="158" type="line" smooth="yes"/>
      <point x="179" y="158" smooth="yes"/>
      <point x="335" y="18" smooth="yes"/>
      <point x="488" y="18" type="curve" smooth="yes"/>
      <point x="640" y="18" smooth="yes"/>
      <point x="693" y="112" smooth="yes"/>
      <point x="693" y="276" type="curve" smooth="yes"/>
      <point x="693" y="276" smooth="yes"/>
      <point x="558" y="214" smooth="yes"/>
      <point x="400" y="214" type="curve" smooth="yes"/>
      <point x="241" y="214" smooth="yes"/>
      <point x="57" y="268" smooth="yes"/>
      <point x="57" y="418" type="curve" smooth="yes"/>
      <point x="57" y="569" smooth="yes"/>
      <point x="306" y="664" smooth="yes"/>
      <point x="546" y="664" type="curve" smooth="yes"/>
      <point x="787" y="664" smooth="yes"/>
      <point x="1030" y="537" smooth="yes"/>
      <point x="1030" y="313" type="curve" smooth="yes"/>
      <point x="1030" y="105" smooth="yes"/>
      <point x="792" y="-22" smooth="yes"/>
      <point x="518" y="-22" type="curve" smooth="yes"/>
      <point x="304" y="-22" smooth="yes"/>
      <point x="179" y="27" smooth="yes"/>
      <point x="179" y="27" type="curve" smooth="yes"/>
    </contour>
    <contour>
      <point x="694" y="382" type="line" smooth="yes"/>
      <point x="694" y="499" smooth="yes"/>
      <point x="684" y="624" smooth="yes"/>
      <point x="540" y="624" type="curve" smooth="yes"/>
      <point x="384" y="624" smooth="yes"/>
      <point x="377" y="496" smooth="yes"/>
      <point x="377" y="436" type="curve" smooth="yes"/>
      <point x="377" y="341" smooth="yes"/>
      <point x="414" y="262" smooth="yes"/>
      <point x="504" y="262" type="curve" smooth="yes"/>
      <point x="594" y="262" smooth="yes"/>
      <point x="694" y="318" smooth="yes"/>
      <point x="694" y="318" type="curve" smooth="yes"/>
    </contour>
    <contour>
      <point x="681" y="25" type="line"/>
      <point x="681" y="25" smooth="yes"/>
      <point x="814" y="115" smooth="yes"/>
      <point x="814" y="312" type="curve" smooth="yes"/>
      <point x="814" y="509" smooth="yes"/>
      <point x="715" y="602" smooth="yes"/>
      <point x="713" y="600" type="curve" smooth="yes"/>
      <point x="710" y="598" type="line" smooth="yes"/>
      <point x="710" y="598" smooth="yes"/>
      <point x="758" y="529" smooth="yes"/>
      <point x="758" y="312" type="curve" smooth="yes"/>
      <point x="758" y="143" smooth="yes"/>
      <point x="679" y="28" smooth="yes"/>
      <point x="679" y="28" type="curve" smooth="yes"/>
    </contour>
    <contour>
      <point x="237" y="267" type="line"/>
      <point x="237" y="267" smooth="yes"/>
      <point x="167" y="307" smooth="yes"/>
      <point x="167" y="412" type="curve" smooth="yes"/>
      <point x="167" y="517" smooth="yes"/>
      <point x="239" y="565" smooth="yes"/>
      <point x="235" y="563" type="curve" smooth="yes"/>
      <point x="234" y="566" type="line" smooth="yes"/>
      <point x="234" y="566" smooth="yes"/>
      <point x="120" y="533" smooth="yes"/>
      <point x="120" y="412" type="curve" smooth="yes"/>
      <point x="120" y="292" smooth="yes"/>
      <point x="232" y="265" smooth="yes"/>
      <point x="236" y="264" type="curve" smooth="yes"/>
    </contour>
  </outline>
</glyph>
<glyph name="at" format="1">
  <advance width="1278"/>
  <unicode hex="0040"/>
  <outline>
    <contour>
      <point x="726" y="651" type="line" name="hr00"/>
      <point x="818" y="631" smooth="yes"/>
      <point x="851" y="559" smooth="yes"/>
      <point x="851" y="525" type="curve" smooth="yes"/>
      <point x="851" y="74" type="line"/>
      <point x="787" y="74" type="line"/>
      <point x="787" y="525" type="line" smooth="yes"/>
      <point x="787" y="556"/>
      <point x="779" y="619"/>
      <point x="723" y="641" type="curve"/>
    </contour>
    <contour>
      <point x="587" y="694" type="curve" smooth="yes"/>
      <point x="230" y="694" smooth="yes"/>
      <point x="50" y="471" smooth="yes"/>
      <point x="50" y="244" type="curve" smooth="yes"/>
      <point x="50" y="13" smooth="yes"/>
      <point x="239" y="-222" smooth="yes"/>
      <point x="618" y="-222" type="curve" smooth="yes"/>
      <point x="965" y="-222"/>
      <point x="1248" y="20"/>
      <point x="1248" y="317" type="curve"/>
      <point x="1188" y="317" type="line"/>
      <point x="1188" y="53" smooth="yes"/>
      <point x="932" y="-162" smooth="yes"/>
      <point x="618" y="-162" type="curve" smooth="yes"/>
      <point x="382" y="-162" smooth="yes"/>
      <point x="276" y="34" smooth="yes"/>
      <point x="276" y="233" type="curve" smooth="yes"/>
      <point x="276" y="437" smooth="yes"/>
      <point x="388" y="644" smooth="yes"/>
      <point x="587" y="644" type="curve" smooth="yes"/>
      <point x="723" y="644" smooth="yes"/>
      <point x="735" y="547" smooth="yes"/>
      <point x="735" y="496" type="curve" smooth="yes"/>
      <point x="735" y="101" type="line"/>
      <point x="745" y="83" type="line"/>
      <point x="775" y="18" type="line"/>
      <point x="1021" y="18" type="line"/>
      <point x="1021" y="497" type="line" smooth="yes"/>
      <point x="1021" y="666" smooth="yes"/>
      <point x="820" y="694" smooth="yes"/>
    </contour>
    <contour>
      <point x="787" y="139" type="line"/>
      <point x="755" y="124" smooth="yes"/>
      <point x="722" y="116" smooth="yes"/>
      <point x="694" y="116" type="curve" smooth="yes"/>
      <point x="628" y="116" smooth="yes"/>
      <point x="600" y="172" smooth="yes"/>
      <point x="600" y="229" type="curve" smooth="yes"/>
      <point x="600" y="290" smooth="yes"/>
      <point x="631" y="356" smooth="yes"/>
      <point x="695" y="356" type="curve" smooth="yes"/>
      <point x="724" y="356"/>
      <point x="747" y="355"/>
      <point x="781" y="352" type="curve"/>
      <point x="777" y="403" type="line"/>
      <point x="719" y="407" smooth="yes"/>
      <point x="707" y="409" smooth="yes"/>
      <point x="600" y="409" type="curve" smooth="yes"/>
      <point x="437" y="409" smooth="yes"/>
      <point x="362" y="307" smooth="yes"/>
      <point x="362" y="205" type="curve" smooth="yes"/>
      <point x="362" y="102" smooth="yes"/>
      <point x="438" y="-1" smooth="yes"/>
      <point x="575" y="-1" type="curve" smooth="yes"/>
      <point x="649" y="-1"/>
      <point x="729" y="38"/>
      <point x="787" y="107" type="curve"/>
    </contour>
    <contour>
      <point x="315" y="-118" type="line"/>
      <point x="190" y="-64" smooth="yes"/>
      <point x="110" y="100" smooth="yes"/>
      <point x="110" y="244" type="curve" smooth="yes"/>
      <point x="110" y="389"/>
      <point x="190" y="549"/>
      <point x="314" y="604" type="curve"/>
      <point x="317" y="596" type="line"/>
      <point x="234" y="533" smooth="yes"/>
      <point x="174" y="394" smooth="yes"/>
      <point x="174" y="244" type="curve" smooth="yes"/>
      <point x="174" y="93"/>
      <point x="235" y="-46"/>
      <point x="318" y="-110" type="curve"/>
    </contour>
    <contour>
      <point x="462" y="205" type="curve" smooth="yes"/>
      <point x="462" y="152"/>
      <point x="487" y="83"/>
      <point x="550" y="41" type="curve"/>
      <point x="548" y="34" type="line"/>
      <point x="462" y="68" smooth="yes"/>
      <point x="412" y="136" smooth="yes"/>
      <point x="412" y="205" type="curve" smooth="yes"/>
      <point x="412" y="274"/>
      <point x="462" y="341"/>
      <point x="548" y="376" type="curve"/>
      <point x="550" y="369" type="line"/>
      <point x="487" y="327" smooth="yes"/>
      <point x="462" y="257" smooth="yes"/>
    </contour>
  </outline>
</glyph>
<glyph name="D" format="1">
  <advance width="1469"/>
  <unicode hex="0044"/>
  <outline>
    <contour>
      <point x="70" y="650" type="line" name="hr00"/>
      <point x="70" y="607" type="line"/>
      <point x="190" y="607" type="line" smooth="yes"/>
      <point x="250" y="607" smooth="yes"/>
      <point x="299" y="557" smooth="yes"/>
      <point x="299" y="498" type="curve" smooth="yes"/>
      <point x="299" y="152" type="line" smooth="yes"/>
      <point x="299" y="72" smooth="yes"/>
      <point x="250" y="43" smooth="yes"/>
      <point x="190" y="43" type="curve" smooth="yes"/>
      <point x="70" y="43" type="line"/>
      <point x="70" y="0" type="line"/>
      <point x="925" y="0" type="line" smooth="yes"/>
      <point x="1110" y="0" smooth="yes"/>
      <point x="1446" y="58" smooth="yes"/>
      <point x="1446" y="337" type="curve" smooth="yes"/>
      <point x="1446" y="568" smooth="yes"/>
      <point x="1139" y="650" smooth="yes"/>
      <point x="833" y="650" type="curve" smooth="yes"/>
    </contour>
    <contour>
      <point x="431" y="43" type="line"/>
      <point x="366" y="43" type="line"/>
      <point x="366" y="607" type="line"/>
      <point x="431" y="607" type="line"/>
    </contour>
    <contour>
      <point x="772" y="43" type="line" smooth="yes"/>
      <point x="710" y="43" smooth="yes"/>
      <point x="688" y="85" smooth="yes"/>
      <point x="688" y="145" type="curve" smooth="yes"/>
      <point x="688" y="508" type="line" smooth="yes"/>
      <point x="688" y="568" smooth="yes"/>
      <point x="733" y="606" smooth="yes"/>
      <point x="807" y="606" type="curve" smooth="yes"/>
      <point x="979" y="606" smooth="yes"/>
      <point x="1030" y="484" smooth="yes"/>
      <point x="1030" y="324" type="curve" smooth="yes"/>
      <point x="1030" y="184" smooth="yes"/>
      <point x="987" y="43" smooth="yes"/>
      <point x="863" y="43" type="curve" smooth="yes"/>
    </contour>
    <contour>
      <point x="1200" y="324" type="curve" smooth="yes"/>
      <point x="1200" y="189"/>
      <point x="1135" y="107"/>
      <point x="1034" y="50" type="curve"/>
      <point x="1032" y="53" type="line"/>
      <point x="1088" y="129" smooth="yes"/>
      <point x="1119" y="222" smooth="yes"/>
      <point x="1119" y="324" type="curve" smooth="yes"/>
      <point x="1119" y="426"/>
      <point x="1088" y="519"/>
      <point x="1032" y="595" type="curve"/>
      <point x="1034" y="598" type="line"/>
      <point x="1135" y="541" smooth="yes"/>
      <point x="1200" y="459" smooth="yes"/>
    </contour>
  </outline>
</glyph>
<glyph name="O" format="1">
  <advance width="1345"/>
  <unicode hex="004F"/>
  <outline>
    <contour>
      <point x="1322" y="325" type="curve" smooth="yes" name="hr00"/>
      <point x="1322" y="516" smooth="yes"/>
      <point x="1070" y="670" smooth="yes"/>
      <point x="672" y="670" type="curve" smooth="yes"/>
      <point x="274" y="670" smooth="yes"/>
      <point x="22" y="516" smooth="yes"/>
      <point x="22" y="325" type="curve" smooth="yes"/>
      <point x="22" y="133" smooth="yes"/>
      <point x="313" y="-22" smooth="yes"/>
      <point x="672" y="-22" type="curve" smooth="yes"/>
      <point x="1031" y="-22" smooth="yes"/>
      <point x="1322" y="133" smooth="yes"/>
    </contour>
    <contour>
      <point x="672" y="629" type="curve" smooth="yes"/>
      <point x="836" y="629" smooth="yes"/>
      <point x="879" y="524" smooth="yes"/>
      <point x="879" y="324" type="curve" smooth="yes"/>
      <point x="879" y="123" smooth="yes"/>
      <point x="803" y="19" smooth="yes"/>
      <point x="672" y="19" type="curve" smooth="yes"/>
      <point x="542" y="19" smooth="yes"/>
      <point x="465" y="123" smooth="yes"/>
      <point x="465" y="324" type="curve" smooth="yes"/>
      <point x="465" y="524" smooth="yes"/>
      <point x="509" y="629" smooth="yes"/>
    </contour>
    <contour>
      <point x="384" y="40" type="line"/>
      <point x="200" y="96" smooth="yes"/>
      <point x="76" y="202" smooth="yes"/>
      <point x="76" y="325" type="curve" smooth="yes"/>
      <point x="76" y="449"/>
      <point x="202" y="556"/>
      <point x="388" y="611" type="curve"/>
      <point x="389" y="607" type="line"/>
      <point x="246" y="551" smooth="yes"/>
      <point x="149" y="445" smooth="yes"/>
      <point x="149" y="325" type="curve" smooth="yes"/>
      <point x="149" y="205"/>
      <point x="244" y="100"/>
      <point x="385" y="44" type="curve"/>
    </contour>
    <contour>
      <point x="1035" y="325" type="curve"/>
      <point x="1035" y="219"/>
      <point x="984" y="116"/>
      <point x="909" y="47" type="curve"/>
      <point x="903" y="49" type="line"/>
      <point x="937" y="133" smooth="yes"/>
      <point x="960" y="231" smooth="yes"/>
      <point x="960" y="325" type="curve" smooth="yes"/>
      <point x="960" y="419"/>
      <point x="937" y="517"/>
      <point x="903" y="601" type="curve"/>
      <point x="909" y="603" type="line"/>
      <point x="984" y="534" smooth="yes"/>
      <point x="1035" y="431" smooth="yes"/>
    </contour>
  </outline>
</glyph>
<glyph name="S" format="1">
  <advance width="1261"/>
  <unicode hex="0053"/>
  <outline>
    <contour>
      <point x="96" y="447" type="curve" smooth="yes"/>
      <point x="96" y="186" smooth="yes"/>
      <point x="858" y="185" smooth="yes"/>
      <point x="858" y="70" type="curve" smooth="yes"/>
      <point x="858" y="27" smooth="yes"/>
      <point x="768" y="20" smooth="yes"/>
      <point x="691" y="20" type="curve" smooth="yes"/>
      <point x="433" y="20"/>
      <point x="183" y="185"/>
      <point x="141" y="281" type="curve"/>
      <point x="94" y="281" type="line"/>
      <point x="94" y="0" type="line"/>
      <point x="141" y="0" type="line"/>
      <point x="169" y="58" type="line"/>
      <point x="332" y="8" smooth="yes"/>
      <point x="457" y="-21" smooth="yes"/>
      <point x="644" y="-21" type="curve" smooth="yes"/>
      <point x="981" y="-21" smooth="yes"/>
      <point x="1166" y="44" smooth="yes"/>
      <point x="1166" y="206" type="curve" smooth="yes"/>
      <point x="1166" y="526" smooth="yes"/>
      <point x="431" y="436" smooth="yes"/>
      <point x="431" y="575" type="curve" smooth="yes"/>
      <point x="431" y="617" smooth="yes"/>
      <point x="487" y="629" smooth="yes"/>
      <point x="558" y="629" type="curve" smooth="yes"/>
      <point x="733" y="629"/>
      <point x="1035" y="508"/>
      <point x="1083" y="439" type="curve"/>
      <point x="1130" y="439" type="line"/>
      <point x="1130" y="650" type="line"/>
      <point x="1083" y="650" type="line"/>
      <point x="1065" y="607" type="line"/>
      <point x="936" y="636" smooth="yes"/>
      <point x="706" y="670" smooth="yes"/>
      <point x="567" y="670" type="curve" smooth="yes"/>
      <point x="377" y="670" smooth="yes"/>
      <point x="96" y="666" smooth="yes"/>
    </contour>
    <contour>
      <point x="973" y="68" type="line"/>
      <point x="909" y="167" smooth="yes"/>
      <point x="800" y="168" smooth="yes"/>
      <point x="504" y="244" type="curve" smooth="yes"/>
      <point x="266" y="305" smooth="yes"/>
      <point x="157" y="367" smooth="yes"/>
      <point x="157" y="460" type="curve" smooth="yes" name="hr01"/>
      <point x="157" y="482"/>
      <point x="162" y="512"/>
      <point x="170" y="530" type="curve"/>
      <point x="177" y="529" type="line"/>
      <point x="202" y="395" smooth="yes"/>
      <point x="390" y="335" smooth="yes"/>
      <point x="577" y="291" type="curve" smooth="yes"/>
      <point x="784" y="241" smooth="yes"/>
      <point x="977" y="230" smooth="yes"/>
      <point x="977" y="92" type="curve" smooth="yes"/>
      <point x="977" y="69" type="line"/>
    </contour>
  </outline>
</glyph>
<glyph name="bracketright" format="1">
  <advance width="715"/>
  <unicode hex="005D"/>
  <outline>
    <contour>
      <point x="220" y="562" type="line" smooth="yes" name="hr00"/>
      <point x="220" y="621" smooth="yes"/>
      <point x="171" y="670" smooth="yes"/>
      <point x="111" y="670" type="curve" smooth="yes"/>
      <point x="-10" y="670" type="line"/>
      <point x="-10" y="715" type="line"/>
      <point x="565" y="715" type="line"/>
      <point x="565" y="-95" type="line"/>
      <point x="-10" y="-95" type="line"/>
      <point x="-10" y="-52" type="line"/>
      <point x="111" y="-52" type="line" smooth="yes"/>
      <point x="171" y="-52" smooth="yes"/>
      <point x="220" y="-24" smooth="yes"/>
      <point x="220" y="56" type="curve" smooth="yes"/>
    </contour>
    <contour>
      <point x="287" y="-52" type="line"/>
      <point x="352" y="-52" type="line"/>
      <point x="352" y="670" type="line"/>
      <point x="287" y="670" type="line"/>
    </contour>
  </outline>
</glyph>
<glyph name="a" format="1">
  <advance width="1162"/>
  <unicode hex="0061"/>
  <outline>
    <contour>
      <point x="628" y="528" type="line"/>
      <point x="736" y="505" smooth="yes"/>
      <point x="752" y="449" smooth="yes"/>
      <point x="752" y="409" type="curve" smooth="yes"/>
      <point x="752" y="43" type="line"/>
      <point x="701" y="43" type="line"/>
      <point x="701" y="409" type="line" smooth="yes"/>
      <point x="701" y="445"/>
      <point x="691" y="495"/>
      <point x="626" y="521" type="curve"/>
    </contour>
    <contour>
      <point x="168" y="425" type="line"/>
      <point x="221" y="462" smooth="yes"/>
      <point x="346" y="525" smooth="yes"/>
      <point x="479" y="525" type="curve" smooth="yes"/>
      <point x="627" y="525" smooth="yes"/>
      <point x="639" y="434" smooth="yes"/>
      <point x="639" y="386" type="curve" smooth="yes"/>
      <point x="639" y="0" type="line"/>
      <point x="1132" y="0" type="line"/>
      <point x="1132" y="43" type="line"/>
      <point x="1066" y="43" type="line" smooth="yes"/>
      <point x="1017" y="43" smooth="yes"/>
      <point x="976" y="66" smooth="yes"/>
      <point x="976" y="132" type="curve" smooth="yes"/>
      <point x="976" y="423" type="line" smooth="yes"/>
      <point x="976" y="551" smooth="yes"/>
      <point x="857" y="580" smooth="yes"/>
      <point x="606" y="580" type="curve" smooth="yes"/>
      <point x="445" y="580"/>
      <point x="311" y="566"/>
      <point x="183" y="527" type="curve"/>
      <point x="179" y="539"/>
      <point x="172" y="568"/>
      <point x="169" y="579" type="curve" name="hr01"/>
      <point x="127" y="579" type="line"/>
      <point x="127" y="425" type="line"/>
    </contour>
    <contour>
      <point x="697" y="139" type="line"/>
      <point x="647" y="110" smooth="yes"/>
      <point x="578" y="92" smooth="yes"/>
      <point x="531" y="92" type="curve" smooth="yes"/>
      <point x="450" y="92" smooth="yes"/>
      <point x="417" y="149" smooth="yes"/>
      <point x="417" y="207" type="curve" smooth="yes"/>
      <point x="417" y="268" smooth="yes"/>
      <point x="454" y="335" smooth="yes"/>
      <point x="532" y="335" type="curve" smooth="yes"/>
      <point x="579" y="335"/>
      <point x="633" y="333"/>
      <point x="688" y="330" type="curve"/>
      <point x="688" y="381" type="line"/>
      <point x="579" y="386" smooth="yes"/>
      <point x="492" y="390" smooth="yes"/>
      <point x="337" y="390" type="curve" smooth="yes"/>
      <point x="138" y="390" smooth="yes"/>
      <point x="60" y="289" smooth="yes"/>
      <point x="60" y="187" type="curve" smooth="yes"/>
      <point x="60" y="83" smooth="yes"/>
      <point x="135" y="-22" smooth="yes"/>
      <point x="337" y="-22" type="curve" smooth="yes"/>
      <point x="458" y="-22"/>
      <point x="596" y="19"/>
      <point x="697" y="86" type="curve"/>
    </contour>
    <contour>
      <point x="369" y="8" type="line"/>
      <point x="201" y="8" smooth="yes"/>
      <point x="115" y="97" smooth="yes"/>
      <point x="115" y="187" type="curve" smooth="yes"/>
      <point x="115" y="274"/>
      <point x="199" y="361"/>
      <point x="370" y="361" type="curve"/>
      <point x="370" y="355" type="line"/>
      <point x="245" y="355" smooth="yes"/>
      <point x="183" y="269" smooth="yes"/>
      <point x="183" y="187" type="curve" smooth="yes"/>
      <point x="183" y="102"/>
      <point x="246" y="14"/>
      <point x="369" y="14" type="curve" name="hr02"/>
    </contour>
  </outline>
</glyph>
<glyph name="g" format="1">
  <advance width="1060"/>
  <unicode hex="0067"/>
  <outline>
    <contour>
      <point x="809" y="-287" type="curve"/>
      <point x="902" y="-256" smooth="yes"/>
      <point x="967" y="-187" smooth="yes"/>
      <point x="967" y="-114" type="curve" smooth="yes"/>
      <point x="967" y="195" smooth="yes"/>
      <point x="336" y="1" smooth="yes"/>
      <point x="336" y="126" type="curve" smooth="yes"/>
      <point x="336" y="144"/>
      <point x="353" y="157"/>
      <point x="379" y="166" type="curve"/>
      <point x="299" y="194" type="line"/>
      <point x="179" y="164" smooth="yes"/>
      <point x="65" y="111" smooth="yes"/>
      <point x="65" y="-4" type="curve" smooth="yes"/>
      <point x="65" y="-283"/>
      <point x="733" y="-116"/>
    </contour>
    <contour>
      <point x="135" y="39" type="line"/>
      <point x="161" y="-63" smooth="yes"/>
      <point x="314" y="-94" smooth="yes"/>
      <point x="475" y="-101" type="curve" smooth="yes"/>
      <point x="650" y="-109"/>
      <point x="809" y="-113"/>
      <point x="826" y="-218" type="curve"/>
      <point x="818" y="-220" type="line"/>
      <point x="764" y="-174" smooth="yes"/>
      <point x="700" y="-161" smooth="yes"/>
      <point x="473" y="-150" type="curve" smooth="yes"/>
      <point x="271" y="-140" smooth="yes"/>
      <point x="121" y="-103" smooth="yes"/>
      <point x="121" y="-2" type="curve" smooth="yes" name="hr01"/>
      <point x="121" y="11"/>
      <point x="123" y="24"/>
      <point x="128" y="38" type="curve"/>
    </contour>
    <contour>
      <point x="966" y="362" type="curve" smooth="yes"/>
      <point x="966" y="483" smooth="yes"/>
      <point x="793" y="580" smooth="yes"/>
      <point x="520" y="580" type="curve" smooth="yes"/>
      <point x="246" y="580" smooth="yes"/>
      <point x="73" y="483" smooth="yes"/>
      <point x="73" y="362" type="curve" smooth="yes"/>
      <point x="73" y="241" smooth="yes"/>
      <point x="274" y="143" smooth="yes"/>
      <point x="520" y="143" type="curve" smooth="yes"/>
      <point x="767" y="143" smooth="yes"/>
      <point x="966" y="241" smooth="yes"/>
    </contour>
    <contour>
      <point x="520" y="536" type="curve" smooth="yes"/>
      <point x="600" y="536" smooth="yes"/>
      <point x="659" y="477" smooth="yes"/>
      <point x="659" y="361" type="curve" smooth="yes"/>
      <point x="659" y="245" smooth="yes"/>
      <point x="584" y="186" smooth="yes"/>
      <point x="520" y="186" type="curve" smooth="yes"/>
      <point x="456" y="186" smooth="yes"/>
      <point x="381" y="245" smooth="yes"/>
      <point x="381" y="361" type="curve" smooth="yes"/>
      <point x="381" y="477" smooth="yes"/>
      <point x="441" y="536" smooth="yes"/>
    </contour>
    <contour>
      <point x="349" y="194" type="line"/>
      <point x="221" y="229" smooth="yes"/>
      <point x="136" y="288" smooth="yes"/>
      <point x="136" y="362" type="curve" smooth="yes" name="hr02"/>
      <point x="136" y="435"/>
      <point x="220" y="493"/>
      <point x="348" y="528" type="curve"/>
      <point x="351" y="519" type="line"/>
      <point x="261" y="484" smooth="yes"/>
      <point x="204" y="430" smooth="yes"/>
      <point x="204" y="362" type="curve" smooth="yes"/>
      <point x="204" y="294"/>
      <point x="262" y="238"/>
      <point x="353" y="203" type="curve"/>
    </contour>
    <contour>
      <point x="679" y="519" type="line"/>
      <point x="748" y="481" smooth="yes"/>
      <point x="790" y="412" smooth="yes"/>
      <point x="790" y="361" type="curve" smooth="yes"/>
      <point x="790" y="308"/>
      <point x="747" y="239"/>
      <point x="678" y="201" type="curve"/>
      <point x="671" y="203" type="line"/>
      <point x="701" y="252" smooth="yes"/>
      <point x="722" y="314" smooth="yes"/>
      <point x="722" y="361" type="curve" smooth="yes"/>
      <point x="722" y="407"/>
      <point x="701" y="470"/>
      <point x="672" y="517" type="curve"/>
    </contour>
    <contour>
      <point x="582" y="544" type="line"/>
      <point x="607" y="592"/>
      <point x="652" y="650"/>
      <point x="695" y="682" type="curve"/>
      <point x="710" y="621" smooth="yes"/>
      <point x="788" y="558" smooth="yes"/>
      <point x="881" y="558" type="curve" smooth="yes"/>
      <point x="986" y="558" smooth="yes"/>
      <point x="1070" y="621" smooth="yes"/>
      <point x="1070" y="699" type="curve" smooth="yes" name="hr03"/>
      <point x="1070" y="776" smooth="yes"/>
      <point x="988" y="838" smooth="yes"/>
      <point x="886" y="838" type="curve" smooth="yes"/>
      <point x="752" y="838"/>
      <point x="642" y="767"/>
      <point x="543" y="573" type="curve"/>
    </contour>
    <contour>
      <point x="775" y="699" type="curve" smooth="yes"/>
      <point x="775" y="661"/>
      <point x="787" y="627"/>
      <point x="808" y="600" type="curve"/>
      <point x="762" y="620" smooth="yes"/>
      <point x="729" y="657" smooth="yes"/>
      <point x="729" y="699" type="curve" smooth="yes"/>
      <point x="729" y="740"/>
      <point x="762" y="777"/>
      <point x="808" y="797" type="curve"/>
      <point x="787" y="772" smooth="yes"/>
      <point x="775" y="738" smooth="yes"/>
    </contour>
  </outline>
</glyph>
<glyph name="h" format="1">
  <advance width="1324"/>
  <unicode hex="0068"/>
  <outline>
    <contour>
      <point x="329" y="43" type="line" name="hr00"/>
      <point x="278" y="43" type="line"/>
      <point x="278" y="677" type="line"/>
      <point x="329" y="677" type="line"/>
    </contour>
    <contour>
      <point x="553" y="720" type="line"/>
      <point x="60" y="720" type="line"/>
      <point x="60" y="677" type="line"/>
      <point x="126" y="677" type="line" smooth="yes"/>
      <point x="175" y="677" smooth="yes"/>
      <point x="216" y="636" smooth="yes"/>
      <point x="216" y="588" type="curve" smooth="yes"/>
      <point x="216" y="132" type="line" smooth="yes"/>
      <point x="216" y="75" smooth="yes"/>
      <point x="184" y="43" smooth="yes"/>
      <point x="126" y="43" type="curve" smooth="yes"/>
      <point x="60" y="43" type="line"/>
      <point x="60" y="0" type="line"/>
      <point x="709" y="0" type="line"/>
      <point x="709" y="43" type="line"/>
      <point x="643" y="43" type="line" smooth="yes"/>
      <point x="585" y="43" smooth="yes"/>
      <point x="553" y="75" smooth="yes"/>
      <point x="553" y="132" type="curve" smooth="yes"/>
      <point x="553" y="367" type="line"/>
      <point x="605" y="418" smooth="yes"/>
      <point x="682" y="456" smooth="yes"/>
      <point x="735" y="456" type="curve" smooth="yes"/>
      <point x="783" y="456" smooth="yes"/>
      <point x="801" y="431" smooth="yes"/>
      <point x="801" y="364" type="curve" smooth="yes"/>
      <point x="801" y="0" type="line"/>
      <point x="1294" y="0" type="line"/>
      <point x="1294" y="43" type="line"/>
      <point x="1228" y="43" type="line" smooth="yes"/>
      <point x="1170" y="43" smooth="yes"/>
      <point x="1138" y="75" smooth="yes"/>
      <point x="1138" y="132" type="curve" smooth="yes"/>
      <point x="1138" y="423" type="line" smooth="yes"/>
      <point x="1138" y="533" smooth="yes"/>
      <point x="1067" y="580" smooth="yes"/>
      <point x="900" y="580" type="curve" smooth="yes"/>
      <point x="781" y="580"/>
      <point x="661" y="528"/>
      <point x="553" y="430" type="curve"/>
    </contour>
    <contour>
      <point x="790" y="486" type="line"/>
      <point x="869" y="468" smooth="yes"/>
      <point x="914" y="420" smooth="yes"/>
      <point x="914" y="357" type="curve" smooth="yes"/>
      <point x="914" y="43" type="line"/>
      <point x="863" y="43" type="line"/>
      <point x="863" y="357" type="line" smooth="yes"/>
      <point x="863" y="414"/>
      <point x="835" y="459"/>
      <point x="788" y="479" type="curve"/>
    </contour>
  </outline>
</glyph>
<glyph name="j" format="1">
  <advance width="645"/>
  <unicode hex="006A"/>
  <outline>
    <contour>
      <point x="294" y="-16" type="line"/>
      <point x="294" y="-85"/>
      <point x="268" y="-122"/>
      <point x="244" y="-135" type="curve"/>
      <point x="244" y="515" type="line"/>
      <point x="294" y="515" type="line"/>
    </contour>
    <contour>
      <point x="26" y="515" type="line"/>
      <point x="92" y="515" type="line" smooth="yes"/>
      <point x="141" y="515" smooth="yes"/>
      <point x="182" y="474" smooth="yes"/>
      <point x="182" y="426" type="curve" smooth="yes"/>
      <point x="182" y="-75" type="line" smooth="yes"/>
      <point x="182" y="-135" smooth="yes"/>
      <point x="161" y="-156" smooth="yes"/>
      <point x="121" y="-156" type="curve" smooth="yes"/>
      <point x="42" y="-156"/>
      <point x="-1" y="-65"/>
      <point x="-11" y="43" type="curve"/>
      <point x="-50" y="43" type="line"/>
      <point x="-50" y="-200" type="line"/>
      <point x="-3" y="-200" type="line"/>
      <point x="-3" y="-153" type="line"/>
      <point x="48" y="-199" smooth="yes"/>
      <point x="141" y="-223" smooth="yes"/>
      <point x="236" y="-223" type="curve" smooth="yes"/>
      <point x="387" y="-223" smooth="yes"/>
      <point x="519" y="-162" smooth="yes"/>
      <point x="519" y="-26" type="curve" smooth="yes"/>
      <point x="519" y="558" type="line"/>
      <point x="26" y="558" type="line"/>
    </contour>
    <contour>
      <point x="550" y="740" type="curve" smooth="yes"/>
      <point x="550" y="671" smooth="yes"/>
      <point x="458" y="615" smooth="yes"/>
      <point x="345" y="615" type="curve" smooth="yes"/>
      <point x="232" y="615" smooth="yes"/>
      <point x="140" y="671" smooth="yes"/>
      <point x="140" y="740" type="curve" smooth="yes" name="hr01"/>
      <point x="140" y="809" smooth="yes"/>
      <point x="232" y="866" smooth="yes"/>
      <point x="345" y="866" type="curve" smooth="yes"/>
      <point x="458" y="866" smooth="yes"/>
      <point x="550" y="809" smooth="yes"/>
    </contour>
    <contour>
      <point x="229" y="740" type="curve" smooth="yes"/>
      <point x="229" y="775"/>
      <point x="243" y="805"/>
      <point x="265" y="827" type="curve"/>
      <point x="215" y="810" smooth="yes"/>
      <point x="180" y="777" smooth="yes"/>
      <point x="180" y="740" type="curve" smooth="yes"/>
      <point x="180" y="703"/>
      <point x="215" y="670"/>
      <point x="265" y="653" type="curve"/>
      <point x="243" y="676" smooth="yes"/>
      <point x="229" y="706" smooth="yes"/>
    </contour>
  </outline>
</glyph>
<glyph name="l" format="1">
  <advance width="729"/>
  <unicode hex="006C"/>
  <outline>
    <contour>
      <point x="543" y="720" type="line" name="hr00"/>
      <point x="50" y="720" type="line"/>
      <point x="50" y="677" type="line"/>
      <point x="116" y="677" type="line" smooth="yes"/>
      <point x="165" y="677" smooth="yes"/>
      <point x="206" y="636" smooth="yes"/>
      <point x="206" y="588" type="curve" smooth="yes"/>
      <point x="206" y="132" type="line" smooth="yes"/>
      <point x="206" y="66" smooth="yes"/>
      <point x="165" y="43" smooth="yes"/>
      <point x="116" y="43" type="curve" smooth="yes"/>
      <point x="50" y="43" type="line"/>
      <point x="50" y="0" type="line"/>
      <point x="699" y="0" type="line"/>
      <point x="699" y="43" type="line"/>
      <point x="633" y="43" type="line" smooth="yes"/>
      <point x="584" y="43" smooth="yes"/>
      <point x="543" y="66" smooth="yes"/>
      <point x="543" y="132" type="curve" smooth="yes"/>
    </contour>
    <contour>
      <point x="319" y="43" type="line"/>
      <point x="268" y="43" type="line"/>
      <point x="268" y="677" type="line"/>
      <point x="319" y="677" type="line"/>
    </contour>
  </outline>
</glyph>
<glyph name="m" format="1">
  <advance width="1849"/>
  <unicode hex="006D"/>
  <outline>
    <contour>
      <point x="329" y="43" type="line"/>
      <point x="278" y="43" type="line"/>
      <point x="278" y="515" type="line"/>
      <point x="329" y="515" type="line"/>
    </contour>
    <contour>
      <point x="553" y="558" type="line"/>
      <point x="60" y="558" type="line"/>
      <point x="60" y="515" type="line"/>
      <point x="126" y="515" type="line" smooth="yes"/>
      <point x="175" y="515" smooth="yes"/>
      <point x="216" y="474" smooth="yes"/>
      <point x="216" y="426" type="curve" smooth="yes"/>
      <point x="216" y="132" type="line" smooth="yes"/>
      <point x="216" y="75" smooth="yes"/>
      <point x="184" y="43" smooth="yes"/>
      <point x="126" y="43" type="curve" smooth="yes"/>
      <point x="60" y="43" type="line"/>
      <point x="60" y="0" type="line"/>
      <point x="679" y="0" type="line"/>
      <point x="679" y="43" type="line"/>
      <point x="643" y="43" type="line" smooth="yes"/>
      <point x="585" y="43" smooth="yes"/>
      <point x="553" y="75" smooth="yes"/>
      <point x="553" y="132" type="curve" smooth="yes"/>
      <point x="553" y="367" type="line"/>
      <point x="589" y="421" smooth="yes"/>
      <point x="642" y="456" smooth="yes"/>
      <point x="689" y="456" type="curve" smooth="yes" name="hr01"/>
      <point x="743" y="456" smooth="yes"/>
      <point x="771" y="425" smooth="yes"/>
      <point x="771" y="364" type="curve" smooth="yes"/>
      <point x="771" y="0" type="line"/>
      <point x="1234" y="0" type="line"/>
      <point x="1234" y="43" type="line"/>
      <point x="1198" y="43" type="line" smooth="yes"/>
      <point x="1140" y="43" smooth="yes"/>
      <point x="1108" y="75" smooth="yes"/>
      <point x="1108" y="132" type="curve" smooth="yes"/>
      <point x="1108" y="423" type="line" smooth="yes"/>
      <point x="1108" y="533" smooth="yes"/>
      <point x="1037" y="580" smooth="yes"/>
      <point x="870" y="580" type="curve" smooth="yes" name="hr02"/>
      <point x="737" y="580"/>
      <point x="621" y="525"/>
      <point x="553" y="430" type="curve"/>
    </contour>
    <contour>
      <point x="760" y="486" type="line"/>
      <point x="838" y="468" smooth="yes"/>
      <point x="884" y="421" smooth="yes"/>
      <point x="884" y="357" type="curve" smooth="yes"/>
      <point x="884" y="43" type="line"/>
      <point x="833" y="43" type="line"/>
      <point x="833" y="357" type="line" smooth="yes"/>
      <point x="833" y="414"/>
      <point x="805" y="459"/>
      <point x="758" y="479" type="curve"/>
    </contour>
    <contour>
      <point x="1108" y="367" type="line"/>
      <point x="1144" y="421" smooth="yes"/>
      <point x="1197" y="456" smooth="yes"/>
      <point x="1244" y="456" type="curve" smooth="yes" name="hr03"/>
      <point x="1298" y="456" smooth="yes"/>
      <point x="1326" y="425" smooth="yes"/>
      <point x="1326" y="364" type="curve" smooth="yes"/>
      <point x="1326" y="0" type="line"/>
      <point x="1819" y="0" type="line"/>
      <point x="1819" y="43" type="line"/>
      <point x="1753" y="43" type="line" smooth="yes"/>
      <point x="1695" y="43" smooth="yes"/>
      <point x="1663" y="75" smooth="yes"/>
      <point x="1663" y="132" type="curve" smooth="yes"/>
      <point x="1663" y="423" type="line" smooth="yes"/>
      <point x="1663" y="533" smooth="yes"/>
      <point x="1592" y="580" smooth="yes"/>
      <point x="1425" y="580" type="curve" smooth="yes"/>
      <point x="1292" y="580"/>
      <point x="1176" y="525"/>
      <point x="1108" y="430" type="curve"/>
      <point x="1034" y="425" type="line"/>
      <point x="1034" y="359" type="line"/>
    </contour>
    <contour>
      <point x="1315" y="486" type="line"/>
      <point x="1393" y="468" smooth="yes"/>
      <point x="1439" y="421" smooth="yes"/>
      <point x="1439" y="357" type="curve" smooth="yes"/>
      <point x="1439" y="43" type="line"/>
      <point x="1388" y="43" type="line"/>
      <point x="1388" y="357" type="line" smooth="yes"/>
      <point x="1388" y="415"/>
      <point x="1360" y="460"/>
      <point x="1313" y="479" type="curve"/>
    </contour>
  </outline>
</glyph>
<glyph name="q" format="1">
  <advance width="1146"/>
  <unicode hex="0071"/>
  <outline>
    <contour>
      <point x="673" y="-200" type="line" name="hr00"/>
      <point x="1166" y="-200" type="line"/>
      <point x="1166" y="-157" type="line"/>
      <point x="1100" y="-157" type="line" smooth="yes"/>
      <point x="1051" y="-157" smooth="yes"/>
      <point x="1010" y="-116" smooth="yes"/>
      <point x="1010" y="-68" type="curve" smooth="yes"/>
      <point x="1010" y="580" type="line"/>
      <point x="981" y="580" type="line"/>
      <point x="960" y="521" type="line"/>
      <point x="824" y="551" smooth="yes"/>
      <point x="629" y="580" smooth="yes"/>
      <point x="497" y="580" type="curve" smooth="yes"/>
      <point x="221" y="580" smooth="yes"/>
      <point x="50" y="466" smooth="yes"/>
      <point x="50" y="288" type="curve" smooth="yes"/>
      <point x="50" y="78" smooth="yes"/>
      <point x="216" y="-22" smooth="yes"/>
      <point x="419" y="-22" type="curve" smooth="yes"/>
      <point x="513" y="-22"/>
      <point x="607" y="3"/>
      <point x="673" y="61" type="curve"/>
    </contour>
    <contour>
      <point x="546" y="62" type="curve" smooth="yes"/>
      <point x="447" y="62" smooth="yes"/>
      <point x="420" y="167" smooth="yes"/>
      <point x="420" y="314" type="curve" smooth="yes"/>
      <point x="420" y="461" smooth="yes"/>
      <point x="466" y="537" smooth="yes"/>
      <point x="546" y="537" type="curve" smooth="yes"/>
      <point x="627" y="537" smooth="yes"/>
      <point x="673" y="461" smooth="yes"/>
      <point x="673" y="314" type="curve" smooth="yes"/>
      <point x="673" y="126" type="line"/>
      <point x="656" y="104" smooth="yes"/>
      <point x="606" y="62" smooth="yes"/>
    </contour>
    <contour>
      <point x="181" y="280" type="curve" smooth="yes"/>
      <point x="181" y="160"/>
      <point x="268" y="62"/>
      <point x="414" y="32" type="curve"/>
      <point x="412" y="22" type="line"/>
      <point x="237" y="43" smooth="yes"/>
      <point x="113" y="156" smooth="yes"/>
      <point x="113" y="280" type="curve" smooth="yes"/>
      <point x="113" y="404"/>
      <point x="237" y="507"/>
      <point x="413" y="536" type="curve"/>
      <point x="415" y="527" type="line"/>
      <point x="278" y="497" smooth="yes"/>
      <point x="181" y="401" smooth="yes"/>
    </contour>
    <contour>
      <point x="663" y="528" type="line"/>
      <point x="771" y="505" smooth="yes"/>
      <point x="787" y="417" smooth="yes"/>
      <point x="787" y="356" type="curve" smooth="yes"/>
      <point x="787" y="-157" type="line"/>
      <point x="736" y="-157" type="line"/>
      <point x="736" y="356" type="line" smooth="yes"/>
      <point x="736" y="392"/>
      <point x="726" y="495"/>
      <point x="661" y="521" type="curve"/>
    </contour>
  </outline>
</glyph>
<glyph name="s" format="1">
  <advance width="1092"/>
  <unicode hex="0073"/>
  <outline>
    <contour>
      <point x="121" y="386" type="curve"/>
      <point x="121" y="165" smooth="yes"/>
      <point x="740" y="151" smooth="yes"/>
      <point x="740" y="58" type="curve" smooth="yes"/>
      <point x="740" y="25" smooth="yes"/>
      <point x="669" y="19" smooth="yes"/>
      <point x="608" y="19" type="curve" smooth="yes"/>
      <point x="398" y="19"/>
      <point x="209" y="118"/>
      <point x="163" y="240" type="curve"/>
      <point x="120" y="240" type="line"/>
      <point x="120" y="-4" type="line"/>
      <point x="163" y="-4" type="line"/>
      <point x="185" y="45" type="line"/>
      <point x="339" y="-6" smooth="yes"/>
      <point x="477" y="-22" smooth="yes"/>
      <point x="612" y="-22" type="curve" smooth="yes"/>
      <point x="845" y="-22" smooth="yes"/>
      <point x="997" y="35" smooth="yes"/>
      <point x="997" y="175" type="curve" smooth="yes"/>
      <point x="997" y="445" smooth="yes"/>
      <point x="399" y="376" smooth="yes"/>
      <point x="399" y="488" type="curve" smooth="yes"/>
      <point x="399" y="522" smooth="yes"/>
      <point x="443" y="531" smooth="yes"/>
      <point x="499" y="531" type="curve" smooth="yes"/>
      <point x="701" y="531"/>
      <point x="886" y="428"/>
      <point x="925" y="370" type="curve"/>
      <point x="967" y="370" type="line"/>
      <point x="967" y="554" type="line"/>
      <point x="924" y="554" type="line"/>
      <point x="920" y="543"/>
      <point x="914" y="530"/>
      <point x="910" y="518" type="curve"/>
      <point x="804" y="544" smooth="yes"/>
      <point x="620" y="571" smooth="yes"/>
      <point x="507" y="571" type="curve" smooth="yes"/>
      <point x="352" y="571" smooth="yes"/>
      <point x="121" y="561" smooth="yes"/>
    </contour>
    <contour>
      <point x="199" y="442" type="line"/>
      <point x="208" y="336" smooth="yes"/>
      <point x="355" y="282" smooth="yes"/>
      <point x="512" y="244" type="curve" smooth="yes"/>
      <point x="676" y="204"/>
      <point x="838" y="186"/>
      <point x="838" y="68" type="curve" name="hr01"/>
      <point x="830" y="67" type="line"/>
      <point x="784" y="122" smooth="yes"/>
      <point x="723" y="142" smooth="yes"/>
      <point x="604" y="171" type="curve" smooth="yes"/>
      <point x="314" y="242" smooth="yes"/>
      <point x="178" y="298" smooth="yes"/>
      <point x="178" y="391" type="curve" smooth="yes"/>
      <point x="178" y="407"/>
      <point x="183" y="424"/>
      <point x="192" y="442" type="curve"/>
    </contour>
  </outline>
</glyph>
<glyph name="t" format="1">
  <advance width="753"/>
  <unicode hex="0074"/>
  <outline>
    <contour>
      <point x="737" y="104" type="line" name="hr00"/>
      <point x="699" y="86" smooth="yes"/>
      <point x="662" y="77" smooth="yes"/>
      <point x="630" y="77" type="curve" smooth="yes"/>
      <point x="564" y="77" smooth="yes"/>
      <point x="516" y="117" smooth="yes"/>
      <point x="516" y="205" type="curve" smooth="yes"/>
      <point x="516" y="515" type="line"/>
      <point x="743" y="515" type="line"/>
      <point x="743" y="558" type="line"/>
      <point x="20" y="558" type="line"/>
      <point x="20" y="515" type="line"/>
      <point x="89" y="515" type="line" smooth="yes"/>
      <point x="138" y="515" smooth="yes"/>
      <point x="179" y="492" smooth="yes"/>
      <point x="179" y="426" type="curve" smooth="yes"/>
      <point x="179" y="136" type="line" smooth="yes"/>
      <point x="179" y="3" smooth="yes"/>
      <point x="284" y="-22" smooth="yes"/>
      <point x="417" y="-22" type="curve" smooth="yes"/>
      <point x="556" y="-22"/>
      <point x="670" y="17"/>
      <point x="753" y="64" type="curve"/>
    </contour>
    <contour>
      <point x="174" y="529" type="line"/>
      <point x="244" y="516" smooth="yes"/>
      <point x="293" y="484" smooth="yes"/>
      <point x="293" y="426" type="curve" smooth="yes"/>
      <point x="293" y="136" type="line" smooth="yes"/>
      <point x="293" y="70"/>
      <point x="314" y="37"/>
      <point x="346" y="21" type="curve"/>
      <point x="345" y="13" type="line"/>
      <point x="284" y="24" smooth="yes"/>
      <point x="242" y="56" smooth="yes"/>
      <point x="242" y="136" type="curve" smooth="yes"/>
      <point x="242" y="426" type="line" smooth="yes"/>
      <point x="242" y="477"/>
      <point x="214" y="507"/>
      <point x="172" y="522" type="curve"/>
    </contour>
    <contour>
      <point x="516" y="539" type="line"/>
      <point x="516" y="539"/>
      <point x="516" y="670"/>
      <point x="516" y="670" type="curve"/>
      <point x="516" y="670"/>
      <point x="308" y="670"/>
      <point x="308" y="670" type="curve"/>
      <point x="308" y="670"/>
      <point x="202" y="558"/>
      <point x="60" y="558" type="curve"/>
    </contour>
  </outline>
</glyph>
<glyph name="u" format="1">
  <advance width="1284"/>
  <unicode hex="0075"/>
  <outline>
    <contour>
      <point x="761" y="0" type="line"/>
      <point x="1254" y="0" type="line"/>
      <point x="1254" y="43" type="line"/>
      <point x="1188" y="43" type="line" smooth="yes"/>
      <point x="1139" y="43" smooth="yes"/>
      <point x="1098" y="84" smooth="yes"/>
      <point x="1098" y="132" type="curve" smooth="yes"/>
      <point x="1098" y="558" type="line"/>
      <point x="605" y="558" type="line"/>
      <point x="605" y="515" type="line"/>
      <point x="671" y="515" type="line" smooth="yes"/>
      <point x="720" y="515" smooth="yes"/>
      <point x="761" y="492" smooth="yes"/>
      <point x="761" y="426" type="curve" smooth="yes"/>
      <point x="761" y="192" type="line"/>
      <point x="721" y="147" smooth="yes"/>
      <point x="653" y="103" smooth="yes"/>
      <point x="581" y="103" type="curve" smooth="yes" name="hr01"/>
      <point x="484" y="103" smooth="yes"/>
      <point x="472" y="177" smooth="yes"/>
      <point x="472" y="225" type="curve" smooth="yes"/>
      <point x="472" y="558" type="line"/>
      <point x="20" y="558" type="line"/>
      <point x="20" y="515" type="line"/>
      <point x="86" y="515" type="line" smooth="yes"/>
      <point x="135" y="515" smooth="yes"/>
      <point x="176" y="492" smooth="yes"/>
      <point x="176" y="426" type="curve" smooth="yes"/>
      <point x="176" y="136" type="line" smooth="yes"/>
      <point x="176" y="3" smooth="yes"/>
      <point x="268" y="-22" smooth="yes"/>
      <point x="385" y="-22" type="curve" smooth="yes" name="hr02"/>
      <point x="562" y="-22"/>
      <point x="694" y="60"/>
      <point x="761" y="129" type="curve"/>
    </contour>
    <contour>
      <point x="171" y="528" type="line"/>
      <point x="241" y="515" smooth="yes"/>
      <point x="290" y="484" smooth="yes"/>
      <point x="290" y="426" type="curve" smooth="yes"/>
      <point x="290" y="136" type="line" smooth="yes"/>
      <point x="290" y="70"/>
      <point x="311" y="37"/>
      <point x="343" y="21" type="curve"/>
      <point x="342" y="13" type="line"/>
      <point x="281" y="24" smooth="yes"/>
      <point x="239" y="56" smooth="yes"/>
      <point x="239" y="136" type="curve" smooth="yes"/>
      <point x="239" y="426" type="line" smooth="yes"/>
      <point x="239" y="477"/>
      <point x="211" y="506"/>
      <point x="169" y="521" type="curve"/>
    </contour>
    <contour>
      <point x="756" y="528" type="line"/>
      <point x="826" y="515" smooth="yes"/>
      <point x="875" y="484" smooth="yes"/>
      <point x="875" y="426" type="curve" smooth="yes"/>
      <point x="875" y="43" type="line"/>
      <point x="824" y="43" type="line"/>
      <point x="824" y="426" type="line" smooth="yes"/>
      <point x="824" y="477"/>
      <point x="796" y="506"/>
      <point x="754" y="521" type="curve"/>
    </contour>
  </outline>
</glyph>
<glyph name="y" format="1">
  <advance width="1058"/>
  <unicode hex="0079"/>
  <outline>
    <contour>
      <point x="499" y="31" type="line" name="hr00"/>
      <point x="100" y="515" type="line"/>
      <point x="157" y="515" type="line"/>
      <point x="529" y="63" type="line"/>
    </contour>
    <contour>
      <point x="463" y="0" type="line"/>
      <point x="400" y="-65" type="line"/>
      <point x="367" y="-9" smooth="yes"/>
      <point x="302" y="50" smooth="yes"/>
      <point x="212" y="50" type="curve" smooth="yes"/>
      <point x="110" y="50" smooth="yes"/>
      <point x="29" y="-11" smooth="yes"/>
      <point x="29" y="-87" type="curve" smooth="yes"/>
      <point x="29" y="-161" smooth="yes"/>
      <point x="108" y="-221" smooth="yes"/>
      <point x="207" y="-221" type="curve" smooth="yes"/>
      <point x="324" y="-221" smooth="yes"/>
      <point x="399" y="-145" smooth="yes"/>
      <point x="435" y="-105" type="curve" smooth="yes"/>
      <point x="994" y="515" type="line"/>
      <point x="1049" y="515" type="line"/>
      <point x="1049" y="558" type="line"/>
      <point x="594" y="558" type="line"/>
      <point x="594" y="515" type="line"/>
      <point x="659" y="515" type="line" smooth="yes"/>
      <point x="747" y="515" smooth="yes"/>
      <point x="798" y="475" smooth="yes"/>
      <point x="798" y="424" type="curve" smooth="yes"/>
      <point x="798" y="399" smooth="yes"/>
      <point x="787" y="372" smooth="yes"/>
      <point x="762" y="346" type="curve" smooth="yes"/>
      <point x="652" y="229" type="line"/>
      <point x="496" y="387" type="line" smooth="yes"/>
      <point x="464" y="419" smooth="yes"/>
      <point x="451" y="448" smooth="yes"/>
      <point x="451" y="470" type="curve" smooth="yes"/>
      <point x="451" y="498" smooth="yes"/>
      <point x="470" y="515" smooth="yes"/>
      <point x="495" y="515" type="curve" smooth="yes"/>
      <point x="544" y="515" type="line"/>
      <point x="544" y="558" type="line"/>
      <point x="-30" y="558" type="line"/>
      <point x="-30" y="515" type="line"/>
      <point x="39" y="515" type="line"/>
    </contour>
    <contour>
      <point x="112" y="-87" type="curve" smooth="yes"/>
      <point x="112" y="-124"/>
      <point x="123" y="-157"/>
      <point x="144" y="-183" type="curve"/>
      <point x="99" y="-164" smooth="yes"/>
      <point x="67" y="-128" smooth="yes"/>
      <point x="67" y="-87" type="curve" smooth="yes"/>
      <point x="67" y="-48"/>
      <point x="99" y="-12"/>
      <point x="144" y="7" type="curve"/>
      <point x="123" y="-17" smooth="yes"/>
      <point x="112" y="-50" smooth="yes"/>
    </contour>
  </outline>
</glyph>
<glyph name="z" format="1">
  <advance width="971"/>
  <unicode hex="007A"/>
  <outline>
    <contour>
      <point x="911" y="515" type="line" name="hr00"/>
      <point x="911" y="558" type="line"/>
      <point x="100" y="558" type="line"/>
      <point x="100" y="361" type="line"/>
      <point x="128" y="361" type="line"/>
      <point x="163" y="436" smooth="yes"/>
      <point x="236" y="515" smooth="yes"/>
      <point x="441" y="515" type="curve" smooth="yes"/>
      <point x="483" y="515" type="line"/>
      <point x="72" y="43" type="line"/>
      <point x="50" y="43" type="line"/>
      <point x="50" y="0" type="line"/>
      <point x="908" y="0" type="line"/>
      <point x="908" y="197" type="line"/>
      <point x="880" y="197" type="line"/>
      <point x="815" y="130" smooth="yes"/>
      <point x="726" y="43" smooth="yes"/>
      <point x="533" y="43" type="curve" smooth="yes"/>
      <point x="479" y="43" type="line"/>
      <point x="891" y="515" type="line"/>
    </contour>
    <contour>
      <point x="154" y="43" type="line"/>
      <point x="563" y="515" type="line"/>
      <point x="634" y="515" type="line"/>
      <point x="225" y="43" type="line"/>
    </contour>
  </outline>
</glyph>
<glyph name="exclamdown" format="1">
  <advance width="679"/>
  <unicode hex="00A1"/>
  <outline>
    <contour>
      <point x="567" y="465" type="curve"/>
      <point x="567" y="542" smooth="yes"/>
      <point x="464" y="604" smooth="yes"/>
      <point x="338" y="604" type="curve" smooth="yes"/>
      <point x="210" y="604" smooth="yes"/>
      <point x="108" y="542" smooth="yes"/>
      <point x="108" y="465" type="curve" smooth="yes"/>
      <point x="108" y="388" smooth="yes"/>
      <point x="210" y="326" smooth="yes"/>
      <point x="338" y="326" type="curve" smooth="yes"/>
      <point x="464" y="326" smooth="yes"/>
      <point x="567" y="388" smooth="yes"/>
    </contour>
    <contour>
      <point x="537" y="-104" type="curve"/>
      <point x="537" y="-28" smooth="yes"/>
      <point x="386" y="281" smooth="yes"/>
      <point x="338" y="281" type="curve" smooth="yes"/>
      <point x="291" y="281" smooth="yes"/>
      <point x="139" y="-28" smooth="yes"/>
      <point x="139" y="-104" type="curve" smooth="yes" name="hr01"/>
      <point x="139" y="-182" smooth="yes"/>
      <point x="210" y="-223" smooth="yes"/>
      <point x="338" y="-223" type="curve" smooth="yes"/>
      <point x="464" y="-223" smooth="yes"/>
      <point x="537" y="-182" smooth="yes"/>
    </contour>
    <contour>
      <point x="298" y="-181" type="line"/>
      <point x="249" y="-172" smooth="yes"/>
      <point x="206" y="-150" smooth="yes"/>
      <point x="206" y="-117" type="curve" smooth="yes"/>
      <point x="206" y="-63"/>
      <point x="287" y="137"/>
      <point x="338" y="226" type="curve"/>
      <point x="368" y="178" type="line"/>
      <point x="319" y="79" smooth="yes"/>
      <point x="255" y="-82" smooth="yes"/>
      <point x="254" y="-128" type="curve" smooth="yes"/>
      <point x="254" y="-145"/>
      <point x="277" y="-163"/>
      <point x="302" y="-172" type="curve"/>
    </contour>
    <contour>
      <point x="236" y="465" type="curve"/>
      <point x="236" y="429"/>
      <point x="252" y="396"/>
      <point x="276" y="373" type="curve"/>
      <point x="273" y="368" type="line"/>
      <point x="219" y="388" smooth="yes"/>
      <point x="182" y="425" smooth="yes"/>
      <point x="182" y="465" type="curve" smooth="yes" name="hr02"/>
      <point x="182" y="505"/>
      <point x="219" y="542"/>
      <point x="273" y="562" type="curve"/>
      <point x="276" y="557" type="line"/>
      <point x="252" y="534" smooth="yes"/>
      <point x="236" y="501" smooth="yes"/>
    </contour>
  </outline>
</glyph>
<glyph name="ordfeminine" format="1">
  <advance width="783"/>
  <unicode hex="00AA"/>
  <outline>
    <contour>
      <point x="448" y="634" type="line"/>
      <point x="514" y="619" smooth="yes"/>
      <point x="525" y="584" smooth="yes"/>
      <point x="525" y="559" type="curve" smooth="yes"/>
      <point x="525" y="334" type="line"/>
      <point x="493" y="334" type="line"/>
      <point x="493" y="559" type="line" smooth="yes"/>
      <point x="493" y="581"/>
      <point x="487" y="612"/>
      <point x="447" y="628" type="curve"/>
    </contour>
    <contour>
      <point x="240" y="312" type="line"/>
      <point x="137" y="312" smooth="yes"/>
      <point x="83" y="367" smooth="yes"/>
      <point x="83" y="422" type="curve" smooth="yes"/>
      <point x="83" y="476"/>
      <point x="135" y="530"/>
      <point x="241" y="530" type="curve"/>
      <point x="241" y="525" type="line"/>
      <point x="164" y="525" smooth="yes"/>
      <point x="125" y="473" smooth="yes"/>
      <point x="125" y="422" type="curve" smooth="yes"/>
      <point x="125" y="370"/>
      <point x="164" y="317"/>
      <point x="240" y="317" type="curve"/>
    </contour>
    <contour>
      <point x="142" y="569" type="line"/>
      <point x="178" y="592" smooth="yes"/>
      <point x="260" y="631" smooth="yes"/>
      <point x="349" y="631" type="curve" smooth="yes"/>
      <point x="447" y="631" smooth="yes"/>
      <point x="455" y="574" smooth="yes"/>
      <point x="455" y="545" type="curve" smooth="yes" name="hr01"/>
      <point x="386" y="545" smooth="yes"/>
      <point x="329" y="547" smooth="yes"/>
      <point x="231" y="547" type="curve" smooth="yes"/>
      <point x="101" y="547" smooth="yes"/>
      <point x="50" y="486" smooth="yes"/>
      <point x="50" y="422" type="curve" smooth="yes"/>
      <point x="50" y="358" smooth="yes"/>
      <point x="99" y="294" smooth="yes"/>
      <point x="230" y="294" type="curve" smooth="yes"/>
      <point x="306" y="294"/>
      <point x="391" y="316"/>
      <point x="455" y="353" type="curve"/>
      <point x="455" y="308" type="line" name="hr02"/>
      <point x="783" y="308" type="line"/>
      <point x="783" y="348" type="line"/>
      <point x="718" y="348" type="line" smooth="yes"/>
      <point x="688" y="348" smooth="yes"/>
      <point x="662" y="362" smooth="yes"/>
      <point x="662" y="402" type="curve" smooth="yes"/>
      <point x="662" y="568" type="line" smooth="yes"/>
      <point x="662" y="649" smooth="yes"/>
      <point x="583" y="667" smooth="yes"/>
      <point x="415" y="667" type="curve" smooth="yes"/>
      <point x="339" y="667"/>
      <point x="230" y="654"/>
      <point x="152" y="632" type="curve"/>
      <point x="143" y="664" type="line"/>
      <point x="112" y="664" type="line"/>
      <point x="112" y="569" type="line"/>
    </contour>
    <contour>
      <point x="367" y="367" type="curve" smooth="yes" name="hr03"/>
      <point x="320" y="367" smooth="yes"/>
      <point x="300" y="402" smooth="yes"/>
      <point x="300" y="435" type="curve" smooth="yes"/>
      <point x="300" y="469" smooth="yes"/>
      <point x="323" y="510" smooth="yes"/>
      <point x="368" y="510" type="curve" smooth="yes"/>
      <point x="395" y="510"/>
      <point x="425" y="509"/>
      <point x="455" y="507" type="curve"/>
      <point x="455" y="389" type="line"/>
      <point x="427" y="376" smooth="yes"/>
      <point x="392" y="367" smooth="yes"/>
    </contour>
  </outline>
</glyph>
<glyph name="registered" format="1">
  <advance width="775"/>
  <unicode hex="00AE"/>
  <outline>
    <contour>
      <point x="80" y="457" type="curve" smooth="yes"/>
      <point x="80" y="581" smooth="yes"/>
      <point x="219" y="688" smooth="yes"/>
      <point x="388" y="688" type="curve" smooth="yes"/>
      <point x="557" y="688" smooth="yes"/>
      <point x="695" y="581" smooth="yes"/>
      <point x="695" y="457" type="curve" smooth="yes"/>
      <point x="695" y="333" smooth="yes"/>
      <point x="557" y="226" smooth="yes"/>
      <point x="388" y="226" type="curve" smooth="yes"/>
      <point x="219" y="226" smooth="yes"/>
      <point x="80" y="333" smooth="yes"/>
    </contour>
    <contour>
      <point x="482" y="449" type="line"/>
      <point x="533" y="451" smooth="yes"/>
      <point x="596" y="459" smooth="yes"/>
      <point x="596" y="519" type="curve" smooth="yes"/>
      <point x="596" y="583" smooth="yes"/>
      <point x="534" y="591" smooth="yes"/>
      <point x="490" y="591" type="curve" smooth="yes"/>
      <point x="168" y="591" type="line"/>
      <point x="168" y="574" type="line" name="hr01"/>
      <point x="204" y="574" type="line" smooth="yes"/>
      <point x="222" y="574" smooth="yes"/>
      <point x="237" y="554" smooth="yes"/>
      <point x="237" y="530" type="curve" smooth="yes"/>
      <point x="237" y="392" type="line" smooth="yes"/>
      <point x="237" y="360" smooth="yes"/>
      <point x="222" y="348" smooth="yes"/>
      <point x="204" y="348" type="curve" smooth="yes"/>
      <point x="168" y="348" type="line"/>
      <point x="168" y="331" type="line" name="hr02"/>
      <point x="409" y="331" type="line"/>
      <point x="409" y="348" type="line" name="hr03"/>
      <point x="387" y="348" type="line" smooth="yes"/>
      <point x="369" y="348" smooth="yes"/>
      <point x="354" y="360" smooth="yes"/>
      <point x="354" y="392" type="curve" smooth="yes"/>
      <point x="354" y="422" type="line" smooth="yes"/>
      <point x="354" y="441" smooth="yes"/>
      <point x="354" y="450" smooth="yes"/>
      <point x="363" y="450" type="curve" smooth="yes"/>
      <point x="370" y="450" smooth="yes"/>
      <point x="379" y="433" smooth="yes"/>
      <point x="379" y="433" type="curve" smooth="yes"/>
      <point x="439" y="331" type="line" name="hr04"/>
      <point x="617" y="331" type="line"/>
      <point x="617" y="348" type="line" name="hr05"/>
      <point x="582" y="348" type="line"/>
      <point x="538" y="423" type="line"/>
      <point x="508" y="427"/>
      <point x="490" y="437"/>
      <point x="482" y="445" type="curve"/>
    </contour>
    <contour>
      <point x="354" y="553" type="line" smooth="yes"/>
      <point x="354" y="565" smooth="yes"/>
      <point x="361" y="574" smooth="yes"/>
      <point x="369" y="574" type="curve" smooth="yes" name="hr06"/>
      <point x="369" y="574" smooth="yes"/>
      <point x="388" y="574" smooth="yes"/>
      <point x="405" y="574" type="curve" smooth="yes"/>
      <point x="421" y="574" smooth="yes"/>
      <point x="454" y="559" smooth="yes"/>
      <point x="454" y="518" type="curve" smooth="yes"/>
      <point x="454" y="483" smooth="yes"/>
      <point x="428" y="471" smooth="yes"/>
      <point x="403" y="471" type="curve" smooth="yes"/>
      <point x="378" y="471" smooth="yes"/>
      <point x="354" y="482" smooth="yes"/>
      <point x="354" y="496" type="curve" smooth="yes"/>
    </contour>
    <contour>
      <point x="45" y="457" type="curve" smooth="yes"/>
      <point x="45" y="311" smooth="yes"/>
      <point x="199" y="192" smooth="yes"/>
      <point x="388" y="192" type="curve" smooth="yes" name="hr07"/>
      <point x="577" y="192" smooth="yes"/>
      <point x="730" y="311" smooth="yes"/>
      <point x="730" y="457" type="curve" smooth="yes"/>
      <point x="730" y="603" smooth="yes"/>
      <point x="577" y="722" smooth="yes"/>
      <point x="388" y="722" type="curve" smooth="yes"/>
      <point x="199" y="722" smooth="yes"/>
      <point x="45" y="603" smooth="yes"/>
    </contour>
  </outline>
</glyph>
<glyph name="macron" format="1">
  <advance width="505"/>
  <unicode hex="00AF"/>
  <outline>
    <contour>
      <point x="50" y="630" type="line" name="hr00"/>
      <point x="455" y="630" type="line"/>
      <point x="455" y="764" type="line"/>
      <point x="50" y="764" type="line"/>
    </contour>
    <contour>
      <point x="165" y="650" type="line"/>
      <point x="111" y="650" type="line"/>
      <point x="111" y="744" type="line"/>
      <point x="165" y="744" type="line"/>
    </contour>
  </outline>
</glyph>
<glyph name="degree" format="1">
  <advance width="447"/>
  <unicode hex="00B0"/>
  <outline>
    <contour>
      <point x="30" y="644" type="curve" smooth="yes" name="hr00"/>
      <point x="30" y="537" smooth="yes"/>
      <point x="116" y="451" smooth="yes"/>
      <point x="223" y="451" type="curve" smooth="yes"/>
      <point x="330" y="451" smooth="yes"/>
      <point x="417" y="537" smooth="yes"/>
      <point x="417" y="644" type="curve" smooth="yes"/>
      <point x="417" y="751" smooth="yes"/>
      <point x="330" y="838" smooth="yes"/>
      <point x="223" y="838" type="curve" smooth="yes"/>
      <point x="116" y="838" smooth="yes"/>
      <point x="30" y="751" smooth="yes"/>
    </contour>
    <contour>
      <point x="90" y="644" type="curve" smooth="yes"/>
      <point x="90" y="718" smooth="yes"/>
      <point x="149" y="778" smooth="yes"/>
      <point x="223" y="778" type="curve" smooth="yes"/>
      <point x="297" y="778" smooth="yes"/>
      <point x="357" y="718" smooth="yes"/>
      <point x="357" y="644" type="curve" smooth="yes"/>
      <point x="357" y="570" smooth="yes"/>
      <point x="297" y="511" smooth="yes"/>
      <point x="223" y="511" type="curve" smooth="yes"/>
      <point x="149" y="511" smooth="yes"/>
      <point x="90" y="570" smooth="yes"/>
    </contour>
  </outline>
</glyph>
<glyph name="mu" format="1">
  <advance width="1294"/>
  <unicode hex="00B5"/>
  <outline>
    <contour>
      <point x="510" y="53" type="line"/>
      <point x="528" y="36" smooth="yes"/>
      <point x="565" y="27" smooth="yes"/>
      <point x="590" y="27" type="curve" smooth="yes"/>
      <point x="658" y="27"/>
      <point x="715" y="64"/>
      <point x="771" y="129" type="curve"/>
      <point x="771" y="0" type="line" name="hr01"/>
      <point x="1264" y="0" type="line"/>
      <point x="1264" y="43" type="line"/>
      <point x="1198" y="43" type="line" smooth="yes"/>
      <point x="1149" y="43" smooth="yes"/>
      <point x="1108" y="84" smooth="yes"/>
      <point x="1108" y="132" type="curve" smooth="yes"/>
      <point x="1108" y="559" type="line"/>
      <point x="615" y="559" type="line"/>
      <point x="615" y="515" type="line"/>
      <point x="681" y="515" type="line" smooth="yes"/>
      <point x="730" y="515" smooth="yes"/>
      <point x="771" y="492" smooth="yes"/>
      <point x="771" y="426" type="curve" smooth="yes"/>
      <point x="771" y="192" type="line"/>
      <point x="736" y="147" smooth="yes"/>
      <point x="678" y="103" smooth="yes"/>
      <point x="616" y="103" type="curve" smooth="yes" name="hr02"/>
      <point x="533" y="103" smooth="yes"/>
      <point x="523" y="177" smooth="yes"/>
      <point x="523" y="225" type="curve" smooth="yes"/>
      <point x="523" y="559" type="line"/>
      <point x="30" y="559" type="line"/>
      <point x="30" y="515" type="line"/>
      <point x="96" y="515" type="line" smooth="yes"/>
      <point x="145" y="515" smooth="yes"/>
      <point x="186" y="492" smooth="yes"/>
      <point x="186" y="426" type="curve" smooth="yes"/>
      <point x="186" y="-41" type="line" smooth="yes"/>
      <point x="186" y="-174" smooth="yes"/>
      <point x="291" y="-199" smooth="yes"/>
      <point x="424" y="-199" type="curve" smooth="yes"/>
      <point x="720" y="-199" type="line"/>
      <point x="720" y="-155" type="line"/>
      <point x="639" y="-155" type="line" smooth="yes"/>
      <point x="546" y="-155" smooth="yes"/>
      <point x="510" y="-111" smooth="yes"/>
      <point x="510" y="-44" type="curve" smooth="yes" name="hr03"/>
    </contour>
    <contour>
      <point x="181" y="528" type="line"/>
      <point x="251" y="515" smooth="yes"/>
      <point x="300" y="484" smooth="yes"/>
      <point x="300" y="426" type="curve" smooth="yes"/>
      <point x="300" y="-30" type="line" smooth="yes"/>
      <point x="300" y="-96"/>
      <point x="321" y="-129"/>
      <point x="353" y="-145" type="curve"/>
      <point x="352" y="-153" type="line"/>
      <point x="291" y="-142" smooth="yes"/>
      <point x="249" y="-110" smooth="yes"/>
      <point x="249" y="-30" type="curve" smooth="yes"/>
      <point x="249" y="426" type="line" smooth="yes"/>
      <point x="249" y="477"/>
      <point x="221" y="506"/>
      <point x="179" y="521" type="curve"/>
    </contour>
    <contour>
      <point x="766" y="528" type="line"/>
      <point x="836" y="515" smooth="yes"/>
      <point x="885" y="484" smooth="yes"/>
      <point x="885" y="426" type="curve" smooth="yes"/>
      <point x="885" y="43" type="line"/>
      <point x="834" y="43" type="line"/>
      <point x="834" y="426" type="line" smooth="yes"/>
      <point x="834" y="477"/>
      <point x="806" y="506"/>
      <point x="764" y="521" type="curve"/>
    </contour>
  </outline>
</glyph>
<glyph name="paragraph" format="1">
  <advance width="1117"/>
  <unicode hex="00B6"/>
  <outline>
    <contour>
      <point x="586" y="292" type="line" name="hr00"/>
      <point x="544" y="272" smooth="yes"/>
      <point x="500" y="261" smooth="yes"/>
      <point x="463" y="261" type="curve" smooth="yes"/>
      <point x="375" y="261" smooth="yes"/>
      <point x="338" y="336" smooth="yes"/>
      <point x="338" y="411" type="curve" smooth="yes"/>
      <point x="338" y="492" smooth="yes"/>
      <point x="369" y="580" smooth="yes"/>
      <point x="464" y="580" type="curve" smooth="yes"/>
      <point x="573" y="580" type="line"/>
      <point x="573" y="650" type="line"/>
      <point x="338" y="650" type="line" smooth="yes"/>
      <point x="122" y="650" smooth="yes"/>
      <point x="22" y="515" smooth="yes"/>
      <point x="22" y="379" type="curve" smooth="yes"/>
      <point x="22" y="243" smooth="yes"/>
      <point x="123" y="106" smooth="yes"/>
      <point x="305" y="106" type="curve" smooth="yes"/>
      <point x="403" y="106"/>
      <point x="509" y="158"/>
      <point x="586" y="249" type="curve"/>
    </contour>
    <contour>
      <point x="155" y="379" type="curve" smooth="yes"/>
      <point x="155" y="309"/>
      <point x="188" y="217"/>
      <point x="272" y="162" type="curve"/>
      <point x="269" y="152" type="line"/>
      <point x="155" y="198" smooth="yes"/>
      <point x="88" y="288" smooth="yes"/>
      <point x="88" y="379" type="curve" smooth="yes"/>
      <point x="88" y="471"/>
      <point x="155" y="560"/>
      <point x="269" y="606" type="curve"/>
      <point x="272" y="597" type="line"/>
      <point x="188" y="541" smooth="yes"/>
      <point x="155" y="448" smooth="yes"/>
    </contour>
    <contour>
      <point x="661" y="31" type="line" smooth="yes"/>
      <point x="661" y="-68"/>
      <point x="624" y="-102"/>
      <point x="597" y="-113" type="curve"/>
      <point x="597" y="571" type="line" smooth="yes"/>
      <point x="597" y="670"/>
      <point x="634" y="704"/>
      <point x="661" y="715" type="curve"/>
    </contour>
    <contour>
      <point x="963" y="801" type="curve" smooth="yes"/>
      <point x="624" y="801" smooth="yes"/>
      <point x="530" y="719" smooth="yes"/>
      <point x="530" y="583" type="curve" smooth="yes"/>
      <point x="530" y="-48" type="line" smooth="yes"/>
      <point x="530" y="-128" smooth="yes"/>
      <point x="480" y="-156" smooth="yes"/>
      <point x="421" y="-156" type="curve" smooth="yes"/>
      <point x="409" y="-156"/>
      <point x="396" y="-155"/>
      <point x="388" y="-154" type="curve"/>
      <point x="383" y="-194" type="line"/>
      <point x="416" y="-197" smooth="yes"/>
      <point x="451" y="-199" smooth="yes"/>
      <point x="487" y="-199" type="curve" smooth="yes"/>
      <point x="826" y="-199" smooth="yes"/>
      <point x="920" y="-117" smooth="yes"/>
      <point x="920" y="19" type="curve" smooth="yes"/>
      <point x="920" y="650" type="line" smooth="yes"/>
      <point x="920" y="730" smooth="yes"/>
      <point x="970" y="758" smooth="yes"/>
      <point x="1029" y="758" type="curve" smooth="yes"/>
      <point x="1041" y="758"/>
      <point x="1054" y="757"/>
      <point x="1062" y="756" type="curve"/>
      <point x="1067" y="796" type="line"/>
      <point x="1034" y="799" smooth="yes"/>
      <point x="999" y="801" smooth="yes"/>
    </contour>
  </outline>
</glyph>
<glyph name="dcroat" format="1">
  <advance width="1190"/>
  <unicode hex="0111"/>
  <outline>
    <contour>
      <point x="700" y="620" type="line" name="hr00"/>
      <point x="396" y="620" type="line"/>
      <point x="396" y="548" type="line"/>
      <point x="700" y="548" type="line"/>
    </contour>
    <contour>
      <point x="1118" y="620" type="line"/>
      <point x="814" y="620" type="line"/>
      <point x="814" y="548" type="line"/>
      <point x="1118" y="548" type="line"/>
    </contour>
    <component  base="d.alt"/>
  </outline>
</glyph>
<glyph name="hbar" format="1">
  <advance width="1324"/>
  <unicode hex="0127"/>
  <outline>
    <contour>
      <point x="248" y="620" type="line" name="hr00"/>
      <point x="103" y="620" type="line"/>
      <point x="103" y="548" type="line"/>
      <point x="248" y="548" type="line"/>
    </contour>
    <contour>
      <point x="825" y="620" type="line"/>
      <point x="362" y="620" type="line"/>
      <point x="362" y="548" type="line"/>
      <point x="825" y="548" type="line"/>
    </contour>
    <component  base="h.alt"/>
  </outline>
</glyph>
<glyph name="dotlessi" format="1">
  <advance width="739"/>
  <unicode hex="0131"/>
  <outline>
    <contour>
      <point x="554" y="558" type="line" name="hr00"/>
      <point x="60" y="558" type="line"/>
      <point x="60" y="515" type="line"/>
      <point x="126" y="515" type="line" smooth="yes"/>
      <point x="175" y="515" smooth="yes"/>
      <point x="216" y="474" smooth="yes"/>
      <point x="216" y="426" type="curve" smooth="yes"/>
      <point x="216" y="132" type="line" smooth="yes"/>
      <point x="216" y="66" smooth="yes"/>
      <point x="175" y="43" smooth="yes"/>
      <point x="126" y="43" type="curve" smooth="yes"/>
      <point x="60" y="43" type="line"/>
      <point x="60" y="0" type="line"/>
      <point x="709" y="0" type="line"/>
      <point x="709" y="43" type="line"/>
      <point x="643" y="43" type="line" smooth="yes"/>
      <point x="594" y="43" smooth="yes"/>
      <point x="553" y="66" smooth="yes"/>
      <point x="553" y="132" type="curve" smooth="yes"/>
    </contour>
    <contour>
      <point x="329" y="43" type="line"/>
      <point x="278" y="43" type="line"/>
      <point x="278" y="515" type="line"/>
      <point x="329" y="515" type="line"/>
    </contour>
  </outline>
</glyph>
<glyph name="kgreenlandic" format="1">
  <advance width="1273"/>
  <unicode hex="0138"/>
  <outline>
    <contour>
      <point x="552" y="558" type="line" name="hr00"/>
      <point x="60" y="558" type="line"/>
      <point x="60" y="515" type="line"/>
      <point x="125" y="515" type="line" smooth="yes"/>
      <point x="174" y="515" smooth="yes"/>
      <point x="214" y="473" smooth="yes"/>
      <point x="214" y="425" type="curve" smooth="yes"/>
      <point x="214" y="132" type="line" smooth="yes"/>
      <point x="214" y="67" smooth="yes"/>
      <point x="174" y="43" smooth="yes"/>
      <point x="125" y="43" type="curve" smooth="yes"/>
      <point x="60" y="43" type="line"/>
      <point x="60" y="0" type="line"/>
      <point x="666" y="0" type="line"/>
      <point x="666" y="43" type="line"/>
      <point x="642" y="43" type="line" smooth="yes"/>
      <point x="592" y="43" smooth="yes"/>
      <point x="552" y="67" smooth="yes"/>
      <point x="552" y="132" type="curve" smooth="yes"/>
      <point x="552" y="217" type="line" smooth="yes"/>
      <point x="552" y="234"/>
      <point x="558" y="252"/>
      <point x="593" y="252" type="curve"/>
      <point x="818" y="0" type="line"/>
      <point x="1253" y="0" type="line"/>
      <point x="1253" y="43" type="line"/>
      <point x="1178" y="43" type="line"/>
      <point x="1178" y="43" smooth="yes"/>
      <point x="950" y="311" smooth="yes"/>
      <point x="925" y="342" type="curve" smooth="yes"/>
      <point x="917" y="352" smooth="yes"/>
      <point x="913" y="363" smooth="yes"/>
      <point x="913" y="371" type="curve" smooth="yes"/>
      <point x="913" y="385" smooth="yes"/>
      <point x="926" y="399" smooth="yes"/>
      <point x="937" y="406" type="curve" smooth="yes"/>
      <point x="963" y="421" smooth="yes"/>
      <point x="1132" y="515" smooth="yes"/>
      <point x="1200" y="515" type="curve" smooth="yes"/>
      <point x="1253" y="515" type="line"/>
      <point x="1253" y="558" type="line"/>
      <point x="785" y="558" type="line"/>
      <point x="785" y="515" type="line"/>
      <point x="872" y="515" smooth="yes"/>
      <point x="903" y="509" smooth="yes"/>
      <point x="903" y="480" type="curve" smooth="yes"/>
      <point x="903" y="452" smooth="yes"/>
      <point x="825" y="410" smooth="yes"/>
      <point x="747" y="369" type="curve" smooth="yes"/>
      <point x="682" y="335" smooth="yes"/>
      <point x="617" y="299" smooth="yes"/>
      <point x="598" y="299" type="curve" smooth="yes"/>
      <point x="558" y="299" smooth="yes"/>
      <point x="552" y="323" smooth="yes"/>
      <point x="552" y="346" type="curve" smooth="yes"/>
    </contour>
    <contour>
      <point x="327" y="43" type="line"/>
      <point x="277" y="43" type="line"/>
      <point x="277" y="515" type="line"/>
      <point x="327" y="515" type="line"/>
    </contour>
    <contour>
      <point x="915" y="43" type="line"/>
      <point x="847" y="43" type="line"/>
      <point x="651" y="275" type="line"/>
      <point x="720" y="275" type="line"/>
    </contour>
  </outline>
</glyph>
<glyph name="Eng" format="1">
  <advance width="1544"/>
  <unicode hex="014A"/>
  <outline>
    <contour>
      <point x="1032" y="143" type="line"/>
      <point x="356" y="552" type="line"/>
      <point x="356" y="607" type="line"/>
      <point x="383" y="607" type="line"/>
      <point x="1096" y="176" type="line"/>
      <point x="1096" y="-54" type="line" smooth="yes"/>
      <point x="1096" y="-153"/>
      <point x="1059" y="-187"/>
      <point x="1032" y="-198" type="curve"/>
    </contour>
    <contour>
      <point x="964" y="108" type="line"/>
      <point x="964" y="-135" type="line" smooth="yes"/>
      <point x="964" y="-195" smooth="yes"/>
      <point x="944" y="-216" smooth="yes"/>
      <point x="904" y="-216" type="curve" smooth="yes"/>
      <point x="825" y="-216"/>
      <point x="782" y="-152"/>
      <point x="772" y="-76" type="curve"/>
      <point x="733" y="-76" type="line" name="hr01"/>
      <point x="733" y="-260" type="line"/>
      <point x="780" y="-260" type="line"/>
      <point x="780" y="-213" type="line"/>
      <point x="831" y="-259" smooth="yes"/>
      <point x="924" y="-283" smooth="yes"/>
      <point x="1019" y="-283" type="curve" smooth="yes"/>
      <point x="1170" y="-283" smooth="yes"/>
      <point x="1305" y="-222" smooth="yes"/>
      <point x="1302" y="-86" type="curve" smooth="yes"/>
      <point x="1301" y="410" type="line" smooth="yes"/>
      <point x="1301" y="583"/>
      <point x="1430" y="607"/>
      <point x="1529" y="607" type="curve"/>
      <point x="1529" y="650" type="line"/>
      <point x="1009" y="650" type="line"/>
      <point x="1009" y="607" type="line"/>
      <point x="1108" y="607" smooth="yes"/>
      <point x="1237" y="583" smooth="yes"/>
      <point x="1237" y="410" type="curve" smooth="yes"/>
      <point x="1237" y="387" smooth="yes"/>
      <point x="1222" y="383" smooth="yes"/>
      <point x="1214" y="383" type="curve" smooth="yes"/>
      <point x="1196" y="383" smooth="yes"/>
      <point x="1120" y="431" smooth="yes"/>
      <point x="1120" y="431" type="curve" smooth="yes"/>
      <point x="772" y="650" type="line"/>
      <point x="23" y="650" type="line"/>
      <point x="23" y="607" type="line"/>
      <point x="187" y="607" smooth="yes"/>
      <point x="350" y="519" smooth="yes"/>
      <point x="350" y="382" type="curve" smooth="yes"/>
      <point x="350" y="277" type="line" smooth="yes"/>
      <point x="350" y="104"/>
      <point x="168" y="43"/>
      <point x="35" y="43" type="curve"/>
      <point x="35" y="0" type="line"/>
      <point x="730" y="0" type="line"/>
      <point x="730" y="43" type="line"/>
      <point x="597" y="43" smooth="yes"/>
      <point x="415" y="104" smooth="yes"/>
      <point x="415" y="277" type="curve" smooth="yes"/>
      <point x="415" y="323" type="line" smooth="yes"/>
      <point x="415" y="379" smooth="yes"/>
      <point x="440" y="393" smooth="yes"/>
      <point x="465" y="393" type="curve" smooth="yes" name="hr02"/>
      <point x="490" y="393" smooth="yes"/>
      <point x="515" y="379" smooth="yes"/>
      <point x="515" y="379" type="curve" smooth="yes"/>
    </contour>
  </outline>
</glyph>
<glyph name="eng" format="1">
  <advance width="1258"/>
  <unicode hex="014B"/>
  <outline>
    <contour>
      <point x="329" y="43" type="line"/>
      <point x="278" y="43" type="line"/>
      <point x="278" y="515" type="line"/>
      <point x="329" y="515" type="line"/>
    </contour>
    <contour>
      <point x="801" y="-135" type="line" smooth="yes"/>
      <point x="801" y="-195" smooth="yes"/>
      <point x="780" y="-216" smooth="yes"/>
      <point x="740" y="-216" type="curve" smooth="yes"/>
      <point x="661" y="-216"/>
      <point x="618" y="-152"/>
      <point x="608" y="-76" type="curve"/>
      <point x="569" y="-76" type="line" name="hr01"/>
      <point x="569" y="-260" type="line"/>
      <point x="616" y="-260" type="line"/>
      <point x="616" y="-213" type="line"/>
      <point x="667" y="-259" smooth="yes"/>
      <point x="760" y="-283" smooth="yes"/>
      <point x="855" y="-283" type="curve" smooth="yes"/>
      <point x="1006" y="-283" smooth="yes"/>
      <point x="1138" y="-222" smooth="yes"/>
      <point x="1138" y="-86" type="curve" smooth="yes"/>
      <point x="1138" y="423" type="line" smooth="yes"/>
      <point x="1138" y="533" smooth="yes"/>
      <point x="1067" y="580" smooth="yes"/>
      <point x="900" y="580" type="curve" smooth="yes"/>
      <point x="781" y="580"/>
      <point x="661" y="528"/>
      <point x="553" y="430" type="curve"/>
      <point x="553" y="558" type="line" name="hr02"/>
      <point x="60" y="558" type="line"/>
      <point x="60" y="515" type="line"/>
      <point x="126" y="515" type="line" smooth="yes"/>
      <point x="175" y="515" smooth="yes"/>
      <point x="216" y="474" smooth="yes"/>
      <point x="216" y="426" type="curve" smooth="yes"/>
      <point x="216" y="132" type="line" smooth="yes"/>
      <point x="216" y="75" smooth="yes"/>
      <point x="184" y="43" smooth="yes"/>
      <point x="126" y="43" type="curve" smooth="yes"/>
      <point x="60" y="43" type="line"/>
      <point x="60" y="0" type="line"/>
      <point x="553" y="1" type="line"/>
      <point x="553" y="367" type="line"/>
      <point x="605" y="418" smooth="yes"/>
      <point x="682" y="456" smooth="yes"/>
      <point x="735" y="456" type="curve" smooth="yes" name="hr03"/>
      <point x="783" y="456" smooth="yes"/>
      <point x="801" y="432" smooth="yes"/>
      <point x="801" y="364" type="curve" smooth="yes"/>
    </contour>
    <contour>
      <point x="913" y="-76" type="line" smooth="yes"/>
      <point x="913" y="-145"/>
      <point x="887" y="-182"/>
      <point x="863" y="-195" type="curve"/>
      <point x="863" y="357" type="line" smooth="yes"/>
      <point x="863" y="414"/>
      <point x="835" y="459"/>
      <point x="788" y="479" type="curve"/>
      <point x="790" y="486" type="line"/>
      <point x="868" y="468" smooth="yes"/>
      <point x="914" y="421" smooth="yes"/>
      <point x="914" y="357" type="curve" smooth="yes"/>
    </contour>
  </outline>
</glyph>
<glyph name="oe" format="1">
  <advance width="1621"/>
  <unicode hex="0153"/>
  <outline>
    <contour>
      <point x="171" y="280" type="curve" smooth="yes" name="hr00"/>
      <point x="171" y="167"/>
      <point x="258" y="75"/>
      <point x="404" y="32" type="curve"/>
      <point x="402" y="22" type="line"/>
      <point x="216" y="66" smooth="yes"/>
      <point x="103" y="163" smooth="yes"/>
      <point x="103" y="280" type="curve" smooth="yes"/>
      <point x="103" y="397"/>
      <point x="217" y="494"/>
      <point x="403" y="536" type="curve"/>
      <point x="405" y="527" type="line"/>
      <point x="256" y="483" smooth="yes"/>
      <point x="171" y="392" smooth="yes"/>
    </contour>
    <contour>
      <point x="819" y="278" type="curve" smooth="yes"/>
      <point x="819" y="165"/>
      <point x="906" y="73"/>
      <point x="1052" y="30" type="curve"/>
      <point x="1050" y="20" type="line"/>
      <point x="864" y="64" smooth="yes"/>
      <point x="751" y="161" smooth="yes"/>
      <point x="751" y="278" type="curve" smooth="yes"/>
      <point x="751" y="395"/>
      <point x="865" y="492"/>
      <point x="1051" y="534" type="curve"/>
      <point x="1053" y="525" type="line"/>
      <point x="904" y="481" smooth="yes"/>
      <point x="819" y="390" smooth="yes"/>
    </contour>
    <contour>
      <point x="858" y="46" type="curve"/>
      <point x="969" y="1" smooth="yes"/>
      <point x="1088" y="-22" smooth="yes"/>
      <point x="1204" y="-22" type="curve" smooth="yes"/>
      <point x="1296" y="-22" smooth="yes"/>
      <point x="1382" y="-7" smooth="yes"/>
      <point x="1457" y="23" type="curve" smooth="yes"/>
      <point x="1529" y="50" smooth="yes"/>
      <point x="1581" y="84" smooth="yes"/>
      <point x="1581" y="103" type="curve" smooth="yes"/>
      <point x="1581" y="114" smooth="yes"/>
      <point x="1571" y="123" smooth="yes"/>
      <point x="1558" y="123" type="curve" smooth="yes"/>
      <point x="1533" y="123" smooth="yes"/>
      <point x="1420" y="26" smooth="yes"/>
      <point x="1225" y="26" type="curve" smooth="yes"/>
      <point x="1108" y="26" smooth="yes"/>
      <point x="1059" y="101" smooth="yes"/>
      <point x="1059" y="279" type="curve" smooth="yes"/>
      <point x="1059" y="459" smooth="yes"/>
      <point x="1094" y="536" smooth="yes"/>
      <point x="1176" y="536" type="curve" smooth="yes"/>
      <point x="1241" y="536" smooth="yes"/>
      <point x="1288" y="480" smooth="yes"/>
      <point x="1288" y="402" type="curve" smooth="yes"/>
      <point x="1288" y="320" smooth="yes"/>
      <point x="1235" y="259" smooth="yes"/>
      <point x="1164" y="259" type="curve" smooth="yes"/>
      <point x="964" y="259" type="line"/>
      <point x="964" y="199" type="line"/>
      <point x="1164" y="199" type="line" smooth="yes"/>
      <point x="1418" y="199" smooth="yes"/>
      <point x="1561" y="267" smooth="yes"/>
      <point x="1561" y="389" type="curve" smooth="yes"/>
      <point x="1561" y="507" smooth="yes"/>
      <point x="1424" y="580" smooth="yes"/>
      <point x="1203" y="580" type="curve" smooth="yes"/>
      <point x="1073" y="580"/>
      <point x="941" y="554"/>
      <point x="868" y="513" type="curve"/>
      <point x="780" y="557" smooth="yes"/>
      <point x="668" y="580" smooth="yes"/>
      <point x="542" y="580" type="curve" smooth="yes"/>
      <point x="250" y="580" smooth="yes"/>
      <point x="40" y="455" smooth="yes"/>
      <point x="40" y="280" type="curve" smooth="yes"/>
      <point x="40" y="113" smooth="yes"/>
      <point x="264" y="-22" smooth="yes"/>
      <point x="541" y="-22" type="curve" smooth="yes"/>
      <point x="656" y="-22"/>
      <point x="767" y="2"/>
    </contour>
    <contour>
      <point x="1256" y="545" type="line"/>
      <point x="1347" y="520" smooth="yes"/>
      <point x="1402" y="465" smooth="yes"/>
      <point x="1402" y="402" type="curve" smooth="yes"/>
      <point x="1402" y="336"/>
      <point x="1347" y="278"/>
      <point x="1261" y="252" type="curve"/>
      <point x="1258" y="261" type="line"/>
      <point x="1315" y="290" smooth="yes"/>
      <point x="1351" y="344" smooth="yes"/>
      <point x="1351" y="402" type="curve" smooth="yes"/>
      <point x="1351" y="460"/>
      <point x="1315" y="510"/>
      <point x="1254" y="537" type="curve"/>
    </contour>
    <contour>
      <point x="689" y="279" type="curve" smooth="yes"/>
      <point x="689" y="94" smooth="yes"/>
      <point x="650" y="22" smooth="yes"/>
      <point x="550" y="22" type="curve" smooth="yes"/>
      <point x="450" y="22" smooth="yes"/>
      <point x="411" y="94" smooth="yes"/>
      <point x="411" y="279" type="curve" smooth="yes"/>
      <point x="411" y="464" smooth="yes"/>
      <point x="450" y="536" smooth="yes"/>
      <point x="550" y="536" type="curve" smooth="yes"/>
      <point x="650" y="536" smooth="yes"/>
      <point x="689" y="464" smooth="yes"/>
    </contour>
  </outline>
</glyph>
<glyph name="tbar" format="1">
  <advance width="753"/>
  <unicode hex="0167"/>
  <outline>
    <contour>
      <point x="237" y="310" type="line" name="hr00"/>
      <point x="59" y="310" type="line"/>
      <point x="59" y="238" type="line"/>
      <point x="237" y="238" type="line"/>
    </contour>
    <contour>
      <point x="635" y="310" type="line"/>
      <point x="457" y="310" type="line"/>
      <point x="457" y="238" type="line"/>
      <point x="635" y="238" type="line"/>
    </contour>
    <component  base="t"/>
  </outline>
</glyph>
<glyph name="dotlessj" format="1">
  <advance width="645"/>
  <unicode hex="0237"/>
  <outline>
    <contour>
      <point x="294" y="-16" type="line"/>
      <point x="294" y="-85"/>
      <point x="268" y="-122"/>
      <point x="244" y="-135" type="curve"/>
      <point x="244" y="515" type="line"/>
      <point x="294" y="515" type="line"/>
    </contour>
    <contour>
      <point x="26" y="515" type="line"/>
      <point x="92" y="515" type="line" smooth="yes"/>
      <point x="141" y="515" smooth="yes"/>
      <point x="182" y="474" smooth="yes"/>
      <point x="182" y="426" type="curve" smooth="yes" name="hr01"/>
      <point x="182" y="-75" type="line" smooth="yes"/>
      <point x="182" y="-135" smooth="yes"/>
      <point x="161" y="-156" smooth="yes"/>
      <point x="121" y="-156" type="curve" smooth="yes"/>
      <point x="42" y="-156"/>
      <point x="-1" y="-65"/>
      <point x="-11" y="43" type="curve"/>
      <point x="-50" y="43" type="line" name="hr02"/>
      <point x="-50" y="-200" type="line"/>
      <point x="-3" y="-200" type="line"/>
      <point x="-3" y="-153" type="line"/>
      <point x="48" y="-199" smooth="yes"/>
      <point x="141" y="-223" smooth="yes"/>
      <point x="236" y="-223" type="curve" smooth="yes"/>
      <point x="387" y="-223" smooth="yes"/>
      <point x="519" y="-162" smooth="yes"/>
      <point x="519" y="-26" type="curve" smooth="yes"/>
      <point x="519" y="558" type="line"/>
      <point x="26" y="558" type="line"/>
    </contour>
  </outline>
</glyph>
<glyph name="circumflex" format="1">
  <advance width="691"/>
  <unicode hex="02C6"/>
  <outline>
    <contour>
      <point x="184" y="770" type="line" name="hr00"/>
      <point x="50" y="624" type="line"/>
      <point x="347" y="624" type="line"/>
      <point x="451" y="736" type="line"/>
      <point x="554" y="624" type="line"/>
      <point x="641" y="624" type="line"/>
      <point x="508" y="770" type="line"/>
    </contour>
    <contour>
      <point x="298" y="745" type="line"/>
      <point x="223" y="662" type="line"/>
      <point x="161" y="662" type="line"/>
      <point x="236" y="745" type="line"/>
    </contour>
  </outline>
</glyph>
<glyph name="caron" format="1">
  <advance width="691"/>
  <unicode hex="02C7"/>
  <outline>
    <contour>
      <point x="508" y="624" type="line" name="hr00"/>
      <point x="641" y="770" type="line"/>
      <point x="554" y="770" type="line"/>
      <point x="451" y="658" type="line"/>
      <point x="347" y="770" type="line"/>
      <point x="50" y="770" type="line"/>
      <point x="184" y="624" type="line"/>
    </contour>
    <contour>
      <point x="236" y="649" type="line"/>
      <point x="161" y="732" type="line"/>
      <point x="223" y="732" type="line"/>
      <point x="298" y="649" type="line"/>
    </contour>
  </outline>
</glyph>
<glyph name="breve" format="1">
  <advance width="490"/>
  <unicode hex="02D8"/>
  <outline>
    <contour>
      <point x="246" y="726" type="curve" smooth="yes"/>
      <point x="165" y="726"/>
      <point x="112" y="754"/>
      <point x="71" y="787" type="curve"/>
      <point x="50" y="781" type="line"/>
      <point x="50" y="676" smooth="yes"/>
      <point x="139" y="591" smooth="yes"/>
      <point x="246" y="591" type="curve" smooth="yes"/>
      <point x="355" y="591"/>
      <point x="440" y="676"/>
      <point x="440" y="781" type="curve"/>
      <point x="420" y="787" type="line"/>
      <point x="380" y="754" smooth="yes"/>
      <point x="328" y="726" smooth="yes"/>
    </contour>
    <contour>
      <point x="246" y="663" type="curve" smooth="yes" name="hr01"/>
      <point x="300" y="663"/>
      <point x="348" y="681"/>
      <point x="380" y="705" type="curve"/>
      <point x="385" y="702" type="line"/>
      <point x="358" y="654" smooth="yes"/>
      <point x="304" y="623" smooth="yes"/>
      <point x="246" y="623" type="curve" smooth="yes"/>
      <point x="189" y="623"/>
      <point x="135" y="654"/>
      <point x="108" y="702" type="curve"/>
      <point x="113" y="705" type="line"/>
      <point x="145" y="681" smooth="yes"/>
      <point x="195" y="663" smooth="yes"/>
    </contour>
  </outline>
</glyph>
<glyph name="bullet" format="1">
  <advance width="555"/>
  <unicode hex="2022"/>
  <outline>
    <contour>
      <point x="90" y="181" type="line" name="hr00"/>
      <point x="465" y="181" type="line"/>
      <point x="465" y="472" type="line"/>
      <point x="90" y="472" type="line"/>
    </contour>
    <contour>
      <point x="222" y="221" type="line"/>
      <point x="157" y="221" type="line"/>
      <point x="157" y="432" type="line"/>
      <point x="222" y="432" type="line"/>
    </contour>
  </outline>
</glyph>
<glyph name="fraction" format="1">
  <advance width="566"/>
  <unicode hex="2044"/>
  <outline>
    <contour>
      <point x="112" y="-22" type="line" name="hr00"/>
      <point x="506" y="670" type="line"/>
      <point x="454" y="670" type="line"/>
      <point x="60" y="-22" type="line"/>
    </contour>
  </outline>
</glyph>
<glyph name="zeroinferior" format="1">
  <advance width="571"/>
  <unicode hex="2080"/>
  <outline>
    <contour>
      <point x="556" y="180" type="curve" smooth="yes"/>
      <point x="556" y="286" smooth="yes"/>
      <point x="451" y="371" smooth="yes"/>
      <point x="283" y="371" type="curve" smooth="yes"/>
      <point x="118" y="371" smooth="yes"/>
      <point x="12" y="286" smooth="yes"/>
      <point x="12" y="180" type="curve" smooth="yes"/>
      <point x="12" y="73" smooth="yes"/>
      <point x="134" y="-12" smooth="yes"/>
      <point x="283" y="-12" type="curve" smooth="yes"/>
      <point x="434" y="-12" smooth="yes"/>
      <point x="556" y="73" smooth="yes"/>
    </contour>
    <contour>
      <point x="283" y="342" type="curve" smooth="yes"/>
      <point x="349" y="342" smooth="yes"/>
      <point x="366" y="287" smooth="yes"/>
      <point x="366" y="179" type="curve" smooth="yes"/>
      <point x="366" y="72" smooth="yes"/>
      <point x="335" y="16" smooth="yes"/>
      <point x="283" y="16" type="curve" smooth="yes"/>
      <point x="233" y="16" smooth="yes"/>
      <point x="202" y="72" smooth="yes"/>
      <point x="202" y="179" type="curve" smooth="yes"/>
      <point x="202" y="287" smooth="yes"/>
      <point x="219" y="342" smooth="yes"/>
    </contour>
    <contour>
      <point x="92" y="180" type="curve" smooth="yes" name="hr01"/>
      <point x="92" y="130"/>
      <point x="126" y="60"/>
      <point x="189" y="20" type="curve"/>
      <point x="188" y="17" type="line"/>
      <point x="102" y="50" smooth="yes"/>
      <point x="52" y="114" smooth="yes"/>
      <point x="52" y="180" type="curve" smooth="yes"/>
      <point x="52" y="246"/>
      <point x="102" y="310"/>
      <point x="188" y="343" type="curve"/>
      <point x="189" y="340" type="line"/>
      <point x="126" y="300" smooth="yes"/>
      <point x="92" y="230" smooth="yes"/>
    </contour>
    <contour>
      <point x="446" y="179" type="curve" smooth="yes"/>
      <point x="446" y="121"/>
      <point x="419" y="71"/>
      <point x="386" y="46" type="curve"/>
      <point x="383" y="48" type="line"/>
      <point x="398" y="80" smooth="yes"/>
      <point x="406" y="133" smooth="yes"/>
      <point x="406" y="179" type="curve" smooth="yes"/>
      <point x="406" y="225"/>
      <point x="398" y="278"/>
      <point x="383" y="310" type="curve"/>
      <point x="386" y="312" type="line"/>
      <point x="419" y="287" smooth="yes"/>
      <point x="446" y="237" smooth="yes"/>
    </contour>
  </outline>
</glyph>
<glyph name="oneinferior" format="1">
  <advance width="509"/>
  <unicode hex="2081"/>
  <outline>
    <contour>
      <point x="477" y="329" type="line"/>
      <point x="477" y="360" type="line"/>
      <point x="204" y="360" type="line"/>
      <point x="27" y="249" type="line"/>
      <point x="54" y="216" type="line"/>
      <point x="188" y="309" type="line"/>
      <point x="188" y="309" smooth="yes"/>
      <point x="180" y="273" smooth="yes"/>
      <point x="180" y="238" type="curve" smooth="yes"/>
      <point x="180" y="86" type="line" smooth="yes"/>
      <point x="180" y="45" smooth="yes"/>
      <point x="156" y="30" smooth="yes"/>
      <point x="126" y="30" type="curve" smooth="yes"/>
      <point x="80" y="30" type="line"/>
      <point x="80" y="0" type="line"/>
      <point x="477" y="0" type="line"/>
      <point x="477" y="30" type="line"/>
      <point x="432" y="30" type="line" smooth="yes"/>
      <point x="401" y="30" smooth="yes"/>
      <point x="376" y="45" smooth="yes"/>
      <point x="376" y="86" type="curve" smooth="yes"/>
      <point x="376" y="273" type="line" smooth="yes"/>
      <point x="376" y="304" smooth="yes"/>
      <point x="401" y="329" smooth="yes"/>
      <point x="432" y="329" type="curve" smooth="yes"/>
    </contour>
    <contour>
      <point x="220" y="329" type="line"/>
      <point x="260" y="329" type="line" name="hr01"/>
      <point x="260" y="30" type="line"/>
      <point x="220" y="30" type="line"/>
    </contour>
  </outline>
</glyph>
<glyph name="threeinferior" format="1">
  <advance width="564"/>
  <unicode hex="2083"/>
  <outline>
    <contour>
      <point x="497" y="274" type="curve" smooth="yes"/>
      <point x="497" y="324" smooth="yes"/>
      <point x="406" y="367" smooth="yes"/>
      <point x="264" y="367" type="curve" smooth="yes"/>
      <point x="175" y="367"/>
      <point x="124" y="348"/>
      <point x="71" y="326" type="curve"/>
      <point x="71" y="346" type="line"/>
      <point x="44" y="346" type="line"/>
      <point x="44" y="236" type="line"/>
      <point x="70" y="236" type="line"/>
      <point x="104" y="308" smooth="yes"/>
      <point x="179" y="339" smooth="yes"/>
      <point x="242" y="339" type="curve" smooth="yes"/>
      <point x="299" y="339" smooth="yes"/>
      <point x="323" y="309" smooth="yes"/>
      <point x="323" y="273" type="curve" smooth="yes"/>
      <point x="323" y="235" smooth="yes"/>
      <point x="292" y="208" smooth="yes"/>
      <point x="242" y="208" type="curve" smooth="yes"/>
      <point x="204" y="208"/>
      <point x="171" y="216"/>
      <point x="171" y="255" type="curve"/>
      <point x="144" y="255" type="line"/>
      <point x="144" y="129" type="line"/>
      <point x="171" y="129" type="line"/>
      <point x="171" y="165" smooth="yes"/>
      <point x="209" y="182" smooth="yes"/>
      <point x="256" y="182" type="curve" smooth="yes"/>
      <point x="311" y="182" smooth="yes"/>
      <point x="345" y="147" smooth="yes"/>
      <point x="345" y="98" type="curve" smooth="yes"/>
      <point x="345" y="52" smooth="yes"/>
      <point x="310" y="16" smooth="yes"/>
      <point x="254" y="16" type="curve" smooth="yes"/>
      <point x="165" y="16"/>
      <point x="74" y="63"/>
      <point x="52" y="122" type="curve"/>
      <point x="26" y="122" type="line"/>
      <point x="26" y="0" type="line"/>
      <point x="53" y="0" type="line"/>
      <point x="53" y="24" type="line"/>
      <point x="101" y="3" smooth="yes"/>
      <point x="180" y="-12" smooth="yes"/>
      <point x="264" y="-12" type="curve" smooth="yes"/>
      <point x="413" y="-12" smooth="yes"/>
      <point x="536" y="37" smooth="yes"/>
      <point x="536" y="97" type="curve" smooth="yes"/>
      <point x="536" y="145"/>
      <point x="466" y="182"/>
      <point x="353" y="194" type="curve"/>
      <point x="437" y="207" smooth="yes"/>
      <point x="497" y="237" smooth="yes"/>
    </contour>
    <contour>
      <point x="357" y="21" type="line"/>
      <point x="379" y="46" smooth="yes"/>
      <point x="385" y="74" smooth="yes"/>
      <point x="385" y="98" type="curve" smooth="yes"/>
      <point x="385" y="121"/>
      <point x="379" y="149"/>
      <point x="357" y="174" type="curve"/>
      <point x="360" y="177" type="line"/>
      <point x="400" y="157" smooth="yes"/>
      <point x="427" y="127" smooth="yes"/>
      <point x="427" y="98" type="curve" smooth="yes"/>
      <point x="427" y="68"/>
      <point x="399" y="38"/>
      <point x="360" y="18" type="curve"/>
    </contour>
    <contour>
      <point x="339" y="210" type="curve"/>
      <point x="336" y="213" type="line"/>
      <point x="354" y="233" smooth="yes"/>
      <point x="363" y="252" smooth="yes"/>
      <point x="363" y="273" type="curve" smooth="yes"/>
      <point x="363" y="293"/>
      <point x="356" y="314"/>
      <point x="336" y="339" type="curve"/>
      <point x="339" y="342" type="line"/>
      <point x="381" y="323" smooth="yes"/>
      <point x="403" y="296" smooth="yes"/>
      <point x="403" y="271" type="curve" smooth="yes"/>
      <point x="403" y="247"/>
      <point x="382" y="224"/>
    </contour>
  </outline>
</glyph>
<glyph name="fiveinferior" format="1">
  <advance width="561"/>
  <unicode hex="2085"/>
  <outline>
    <contour>
      <point x="527" y="118" type="curve" smooth="yes"/>
      <point x="527" y="22" smooth="yes"/>
      <point x="365" y="-12" smooth="yes"/>
      <point x="242" y="-12" type="curve" smooth="yes"/>
      <point x="143" y="-12"/>
      <point x="52" y="21"/>
      <point x="52" y="21" type="curve"/>
      <point x="52" y="0" type="line"/>
      <point x="25" y="0" type="line"/>
      <point x="25" y="114" type="line"/>
      <point x="50" y="114" type="line"/>
      <point x="87" y="69" smooth="yes"/>
      <point x="138" y="16" smooth="yes"/>
      <point x="241" y="16" type="curve" smooth="yes"/>
      <point x="324" y="16" smooth="yes"/>
      <point x="336" y="75" smooth="yes"/>
      <point x="336" y="110" type="curve" smooth="yes"/>
      <point x="336" y="145" smooth="yes"/>
      <point x="325" y="209" smooth="yes"/>
      <point x="203" y="209" type="curve" smooth="yes"/>
      <point x="103" y="209"/>
      <point x="38" y="142"/>
      <point x="38" y="142" type="curve"/>
      <point x="23" y="154" type="line"/>
      <point x="190" y="367" type="line" name="hr01"/>
      <point x="206" y="367" type="line" name="hr02"/>
      <point x="206" y="367" smooth="yes"/>
      <point x="208" y="360" smooth="yes"/>
      <point x="246" y="360" type="curve" smooth="yes"/>
      <point x="483" y="360" type="line" smooth="yes"/>
      <point x="510" y="360"/>
      <point x="516" y="369"/>
      <point x="516" y="369" type="curve"/>
      <point x="538" y="357" type="line"/>
      <point x="394" y="286" type="line"/>
      <point x="160" y="286" type="line"/>
      <point x="101" y="213" type="line"/>
      <point x="152" y="232" smooth="yes"/>
      <point x="191" y="243" smooth="yes"/>
      <point x="280" y="243" type="curve" smooth="yes"/>
      <point x="373" y="243" smooth="yes"/>
      <point x="527" y="215" smooth="yes"/>
    </contour>
    <contour>
      <point x="307" y="203" type="line"/>
      <point x="307" y="203" smooth="yes"/>
      <point x="381" y="180" smooth="yes"/>
      <point x="381" y="111" type="curve" smooth="yes"/>
      <point x="381" y="43"/>
      <point x="326" y="22"/>
      <point x="326" y="22" type="curve"/>
      <point x="327" y="18" type="line"/>
      <point x="327" y="18" smooth="yes"/>
      <point x="421" y="32" smooth="yes"/>
      <point x="421" y="112" type="curve" smooth="yes"/>
      <point x="421" y="191"/>
      <point x="308" y="207"/>
      <point x="308" y="207" type="curve"/>
    </contour>
  </outline>
</glyph>
<glyph name="Euro" format="1">
  <advance width="1173"/>
  <unicode hex="20AC"/>
  <outline>
    <contour>
      <point x="1056" y="42" type="curve" smooth="yes"/>
      <point x="1123" y="76" smooth="yes"/>
      <point x="1160" y="103" smooth="yes"/>
      <point x="1160" y="123" type="curve" smooth="yes"/>
      <point x="1160" y="139" smooth="yes"/>
      <point x="1145" y="143" smooth="yes"/>
      <point x="1136" y="143" type="curve" smooth="yes"/>
      <point x="1101" y="143" smooth="yes"/>
      <point x="998" y="20" smooth="yes"/>
      <point x="745" y="20" type="curve" smooth="yes" name="hr01"/>
      <point x="599" y="20" smooth="yes"/>
      <point x="550" y="78" smooth="yes"/>
      <point x="550" y="211" type="curve" smooth="yes"/>
      <point x="550" y="481" type="line" smooth="yes"/>
      <point x="550" y="564" smooth="yes"/>
      <point x="584" y="626" smooth="yes"/>
      <point x="701" y="626" type="curve" smooth="yes"/>
      <point x="858" y="626"/>
      <point x="1013" y="505"/>
      <point x="1065" y="407" type="curve"/>
      <point x="1113" y="407" type="line"/>
      <point x="1113" y="646" type="line"/>
      <point x="1065" y="646" type="line"/>
      <point x="1065" y="596" type="line"/>
      <point x="963" y="633" smooth="yes"/>
      <point x="840" y="670" smooth="yes"/>
      <point x="706" y="670" type="curve" smooth="yes"/>
      <point x="427" y="670" smooth="yes"/>
      <point x="98" y="580" smooth="yes"/>
      <point x="98" y="328" type="curve" smooth="yes"/>
      <point x="98" y="80" smooth="yes"/>
      <point x="398" y="-22" smooth="yes"/>
      <point x="742" y="-22" type="curve" smooth="yes"/>
      <point x="893" y="-22" smooth="yes"/>
      <point x="989" y="9" smooth="yes"/>
    </contour>
    <contour>
      <point x="228" y="320" type="curve"/>
      <point x="228" y="195"/>
      <point x="323" y="111"/>
      <point x="433" y="64" type="curve"/>
      <point x="432" y="59" type="line"/>
      <point x="271" y="101" smooth="yes"/>
      <point x="157" y="202" smooth="yes"/>
      <point x="157" y="320" type="curve" smooth="yes"/>
      <point x="157" y="449"/>
      <point x="271" y="560"/>
      <point x="432" y="605" type="curve"/>
      <point x="433" y="600" type="line"/>
      <point x="323" y="549" smooth="yes"/>
      <point x="228" y="457" smooth="yes"/>
    </contour>
    <contour>
      <point x="874" y="368" type="line"/>
      <point x="874" y="418" type="line"/>
      <point x="432" y="418" type="line"/>
      <point x="432" y="368" type="line"/>
    </contour>
    <contour>
      <point x="874" y="240" type="line"/>
      <point x="874" y="290" type="line"/>
      <point x="432" y="290" type="line"/>
      <point x="432" y="240" type="line"/>
    </contour>
    <contour>
      <point x="142" y="368" type="line"/>
      <point x="142" y="418" type="line"/>
      <point x="0" y="418" type="line"/>
      <point x="0" y="368" type="line"/>
    </contour>
    <contour>
      <point x="142" y="240" type="line"/>
      <point x="142" y="290" type="line"/>
      <point x="0" y="290" type="line"/>
      <point x="0" y="240" type="line"/>
    </contour>
  </outline>
</glyph>
<glyph name="uni2113" format="1">
  <advance width="709"/>
  <unicode hex="2113"/>
  <outline>
    <contour>
      <point x="293" y="617" type="line" name="hr00"/>
      <point x="293" y="136" type="line" smooth="yes"/>
      <point x="293" y="70"/>
      <point x="314" y="37"/>
      <point x="346" y="21" type="curve"/>
      <point x="345" y="13" type="line"/>
      <point x="284" y="24" smooth="yes"/>
      <point x="242" y="56" smooth="yes"/>
      <point x="242" y="136" type="curve" smooth="yes"/>
      <point x="242" y="612" type="line"/>
    </contour>
    <contour>
      <point x="55" y="595" type="line"/>
      <point x="179" y="606" type="line"/>
      <point x="179" y="136" type="line" smooth="yes"/>
      <point x="179" y="31" smooth="yes"/>
      <point x="270" y="-22" smooth="yes"/>
      <point x="382" y="-22" type="curve" smooth="yes"/>
      <point x="494" y="-22"/>
      <point x="626" y="31"/>
      <point x="709" y="138" type="curve"/>
      <point x="673" y="174" type="line"/>
      <point x="639" y="135" smooth="yes"/>
      <point x="606" y="114" smooth="yes"/>
      <point x="577" y="114" type="curve" smooth="yes"/>
      <point x="542" y="114" smooth="yes"/>
      <point x="516" y="142" smooth="yes"/>
      <point x="516" y="205" type="curve" smooth="yes"/>
      <point x="516" y="680" type="line"/>
      <point x="52" y="639" type="line"/>
    </contour>
  </outline>
</glyph>
<glyph name="trademark" format="1">
  <advance width="1568"/>
  <unicode hex="2122"/>
  <outline>
    <contour>
      <point x="416" y="617" type="curve" smooth="yes"/>
      <point x="446" y="617"/>
      <point x="535" y="496"/>
      <point x="535" y="496" type="curve"/>
      <point x="559" y="496" type="line"/>
      <point x="559" y="657" type="line"/>
      <point x="40" y="657" type="line"/>
      <point x="40" y="496" type="line"/>
      <point x="56" y="496" type="line"/>
      <point x="56" y="496" smooth="yes"/>
      <point x="144" y="617" smooth="yes"/>
      <point x="175" y="617" type="curve" smooth="yes"/>
      <point x="185" y="617" smooth="yes"/>
      <point x="190" y="610" smooth="yes"/>
      <point x="190" y="599" type="curve" smooth="yes" name="hr01"/>
      <point x="190" y="398" type="line" smooth="yes"/>
      <point x="190" y="361" smooth="yes"/>
      <point x="167" y="348" smooth="yes"/>
      <point x="137" y="348" type="curve" smooth="yes"/>
      <point x="71" y="348" type="line"/>
      <point x="71" y="308" type="line"/>
      <point x="519" y="308" type="line"/>
      <point x="519" y="348" type="line"/>
      <point x="453" y="348" type="line" smooth="yes"/>
      <point x="423" y="348" smooth="yes"/>
      <point x="400" y="361" smooth="yes"/>
      <point x="400" y="398" type="curve" smooth="yes"/>
      <point x="400" y="599" type="line" smooth="yes"/>
      <point x="400" y="610" smooth="yes"/>
      <point x="405" y="617" smooth="yes"/>
    </contour>
    <contour>
      <point x="270" y="348" type="line" name="hr02"/>
      <point x="230" y="348" type="line"/>
      <point x="230" y="618" type="line"/>
      <point x="270" y="618" type="line"/>
    </contour>
    <contour>
      <point x="1215" y="618" type="line"/>
      <point x="1256" y="618" type="line"/>
      <point x="1256" y="348" type="line"/>
      <point x="1215" y="348" type="line"/>
    </contour>
    <contour>
      <point x="1528" y="618" type="line"/>
      <point x="1528" y="657" type="line"/>
      <point x="1171" y="657" type="line"/>
      <point x="1084" y="524" type="line"/>
      <point x="928" y="657" type="line"/>
      <point x="588" y="657" type="line"/>
      <point x="588" y="617" type="line"/>
      <point x="673" y="617" smooth="yes"/>
      <point x="758" y="575" smooth="yes"/>
      <point x="758" y="508" type="curve" smooth="yes"/>
      <point x="758" y="462" type="line" smooth="yes"/>
      <point x="758" y="378"/>
      <point x="663" y="348"/>
      <point x="595" y="348" type="curve"/>
      <point x="595" y="308" type="line"/>
      <point x="962" y="308" type="line"/>
      <point x="962" y="348" type="line"/>
      <point x="894" y="348" smooth="yes"/>
      <point x="799" y="378" smooth="yes"/>
      <point x="799" y="462" type="curve" smooth="yes"/>
      <point x="799" y="517" type="line"/>
      <point x="994" y="352" type="line"/>
      <point x="1022" y="352" type="line"/>
      <point x="1074" y="431"/>
      <point x="1124" y="510"/>
      <point x="1175" y="589" type="curve" name="hr03"/>
      <point x="1175" y="397" type="line" smooth="yes"/>
      <point x="1175" y="361" smooth="yes"/>
      <point x="1152" y="348" smooth="yes"/>
      <point x="1124" y="348" type="curve" smooth="yes"/>
      <point x="1057" y="348" type="line"/>
      <point x="1057" y="308" type="line"/>
      <point x="1528" y="308" type="line"/>
      <point x="1528" y="348" type="line"/>
      <point x="1438" y="348" type="line" smooth="yes"/>
      <point x="1409" y="348" smooth="yes"/>
      <point x="1385" y="361" smooth="yes"/>
      <point x="1385" y="397" type="curve" smooth="yes"/>
      <point x="1385" y="583" type="line" smooth="yes"/>
      <point x="1385" y="608" smooth="yes"/>
      <point x="1409" y="618" smooth="yes"/>
      <point x="1438" y="618" type="curve" smooth="yes"/>
    </contour>
    <contour>
      <point x="1009" y="409" type="line"/>
      <point x="1001" y="409" type="line"/>
      <point x="750" y="617" type="line"/>
      <point x="811" y="617" type="line"/>
      <point x="1009" y="453" type="line"/>
    </contour>
  </outline>
</glyph>
<glyph name="partialdiff" format="1">
  <advance width="1144"/>
  <unicode hex="2202"/>
  <outline>
    <contour>
      <point x="775" y="500" type="curve"/>
      <point x="727" y="509" smooth="yes"/>
      <point x="675" y="515" smooth="yes"/>
      <point x="617" y="515" type="curve" smooth="yes"/>
      <point x="276" y="515" smooth="yes"/>
      <point x="29" y="374" smooth="yes"/>
      <point x="29" y="216" type="curve" smooth="yes"/>
      <point x="29" y="82" smooth="yes"/>
      <point x="231" y="-22" smooth="yes"/>
      <point x="503" y="-22" type="curve" smooth="yes"/>
      <point x="914" y="-22" smooth="yes"/>
      <point x="1105" y="232" smooth="yes"/>
      <point x="1105" y="448" type="curve" smooth="yes"/>
      <point x="1105" y="660" smooth="yes"/>
      <point x="892" y="801" smooth="yes"/>
      <point x="681" y="801" type="curve" smooth="yes"/>
      <point x="510" y="801"/>
      <point x="446" y="773"/>
      <point x="295" y="723" type="curve"/>
      <point x="273" y="618" type="line"/>
      <point x="307" y="618" type="line"/>
      <point x="307" y="618" smooth="yes"/>
      <point x="415" y="758" smooth="yes"/>
      <point x="633" y="758" type="curve" smooth="yes"/>
      <point x="746" y="758" smooth="yes"/>
      <point x="783" y="646" smooth="yes"/>
      <point x="783" y="569" type="curve" smooth="yes"/>
      <point x="783" y="547"/>
      <point x="780" y="524"/>
    </contour>
    <contour>
      <point x="608" y="471" type="curve" smooth="yes"/>
      <point x="707" y="471" smooth="yes"/>
      <point x="744" y="428" smooth="yes"/>
      <point x="744" y="346" type="curve" smooth="yes" name="hr01"/>
      <point x="744" y="317" smooth="yes"/>
      <point x="739" y="283" smooth="yes"/>
      <point x="731" y="244" type="curve" smooth="yes"/>
      <point x="700" y="97" smooth="yes"/>
      <point x="621" y="21" smooth="yes"/>
      <point x="512" y="21" type="curve" smooth="yes"/>
      <point x="426" y="21" smooth="yes"/>
      <point x="378" y="69" smooth="yes"/>
      <point x="378" y="164" type="curve" smooth="yes"/>
      <point x="378" y="188" smooth="yes"/>
      <point x="381" y="214" smooth="yes"/>
      <point x="387" y="244" type="curve" smooth="yes"/>
      <point x="419" y="391" smooth="yes"/>
      <point x="474" y="471" smooth="yes"/>
    </contour>
    <contour>
      <point x="132" y="213" type="curve" smooth="yes"/>
      <point x="132" y="126"/>
      <point x="214" y="59"/>
      <point x="336" y="29" type="curve"/>
      <point x="332" y="22" type="line"/>
      <point x="174" y="54" smooth="yes"/>
      <point x="68" y="124" smooth="yes"/>
      <point x="68" y="217" type="curve" smooth="yes"/>
      <point x="68" y="338"/>
      <point x="224" y="430"/>
      <point x="428" y="467" type="curve"/>
      <point x="429" y="462" type="line"/>
      <point x="303" y="431" smooth="yes"/>
      <point x="132" y="354" smooth="yes"/>
    </contour>
    <contour>
      <point x="839" y="661" type="line"/>
      <point x="874" y="610" smooth="yes"/>
      <point x="894" y="542" smooth="yes"/>
      <point x="894" y="464" type="curve" smooth="yes"/>
      <point x="894" y="303"/>
      <point x="813" y="151"/>
      <point x="710" y="58" type="curve"/>
      <point x="707" y="62" type="line"/>
      <point x="786" y="213" smooth="yes"/>
      <point x="838" y="400" smooth="yes"/>
      <point x="838" y="567" type="curve" smooth="yes"/>
      <point x="838" y="598"/>
      <point x="837" y="628"/>
      <point x="834" y="657" type="curve"/>
    </contour>
  </outline>
</glyph>
<glyph name="breve.case" format="1">
  <advance width="490"/>
  <outline>
    <contour>
      <point x="246" y="818" type="curve" smooth="yes"/>
      <point x="165" y="818"/>
      <point x="112" y="846"/>
      <point x="71" y="879" type="curve"/>
      <point x="50" y="873" type="line"/>
      <point x="50" y="768" smooth="yes"/>
      <point x="139" y="683" smooth="yes"/>
      <point x="246" y="683" type="curve" smooth="yes"/>
      <point x="355" y="683"/>
      <point x="440" y="768"/>
      <point x="440" y="873" type="curve"/>
      <point x="420" y="879" type="line"/>
      <point x="380" y="846" smooth="yes"/>
      <point x="328" y="818" smooth="yes"/>
    </contour>
    <contour>
      <point x="246" y="755" type="curve" smooth="yes" name="hr01"/>
      <point x="300" y="755"/>
      <point x="348" y="773"/>
      <point x="380" y="797" type="curve"/>
      <point x="385" y="794" type="line"/>
      <point x="358" y="746" smooth="yes"/>
      <point x="304" y="715" smooth="yes"/>
      <point x="246" y="715" type="curve" smooth="yes"/>
      <point x="189" y="715"/>
      <point x="135" y="746"/>
      <point x="108" y="794" type="curve"/>
      <point x="113" y="797" type="line"/>
      <point x="145" y="773" smooth="yes"/>
      <point x="195" y="755" smooth="yes"/>
    </contour>
  </outline>
</glyph>
<glyph name="circumflex.case" format="1">
  <advance width="691"/>
  <outline>
    <contour>
      <point x="184" y="862" type="line" name="hr00"/>
      <point x="50" y="716" type="line"/>
      <point x="347" y="716" type="line"/>
      <point x="451" y="828" type="line"/>
      <point x="554" y="716" type="line"/>
      <point x="641" y="716" type="line"/>
      <point x="508" y="862" type="line"/>
    </contour>
    <contour>
      <point x="298" y="837" type="line"/>
      <point x="223" y="754" type="line"/>
      <point x="161" y="754" type="line"/>
      <point x="236" y="837" type="line"/>
    </contour>
  </outline>
</glyph>
<glyph name="h.alt" format="1">
  <advance width="1324"/>
  <outline>
    <contour>
      <point x="329" y="43" type="line" name="hr00"/>
      <point x="278" y="43" type="line"/>
      <point x="278" y="677" type="line"/>
      <point x="329" y="677" type="line"/>
    </contour>
    <contour>
      <point x="553" y="720" type="line"/>
      <point x="60" y="720" type="line"/>
      <point x="60" y="677" type="line"/>
      <point x="126" y="677" type="line" smooth="yes"/>
      <point x="175" y="677" smooth="yes"/>
      <point x="216" y="636" smooth="yes"/>
      <point x="216" y="588" type="curve" smooth="yes"/>
      <point x="216" y="132" type="line" smooth="yes"/>
      <point x="216" y="75" smooth="yes"/>
      <point x="184" y="43" smooth="yes"/>
      <point x="126" y="43" type="curve" smooth="yes"/>
      <point x="60" y="43" type="line"/>
      <point x="60" y="0" type="line"/>
      <point x="709" y="0" type="line"/>
      <point x="709" y="43" type="line"/>
      <point x="643" y="43" type="line" smooth="yes"/>
      <point x="585" y="43" smooth="yes"/>
      <point x="553" y="75" smooth="yes"/>
      <point x="553" y="132" type="curve" smooth="yes"/>
      <point x="553" y="267" type="line"/>
      <point x="605" y="318" smooth="yes"/>
      <point x="682" y="356" smooth="yes"/>
      <point x="735" y="356" type="curve" smooth="yes"/>
      <point x="783" y="356" smooth="yes"/>
      <point x="801" y="331" smooth="yes"/>
      <point x="801" y="264" type="curve" smooth="yes"/>
      <point x="801" y="0" type="line"/>
      <point x="1294" y="0" type="line"/>
      <point x="1294" y="43" type="line"/>
      <point x="1228" y="43" type="line" smooth="yes"/>
      <point x="1170" y="43" smooth="yes"/>
      <point x="1138" y="75" smooth="yes"/>
      <point x="1138" y="132" type="curve" smooth="yes"/>
      <point x="1138" y="323" type="line" smooth="yes"/>
      <point x="1138" y="433" smooth="yes"/>
      <point x="1067" y="480" smooth="yes"/>
      <point x="900" y="480" type="curve" smooth="yes"/>
      <point x="781" y="480"/>
      <point x="661" y="428"/>
      <point x="553" y="330" type="curve"/>
    </contour>
    <contour>
      <point x="790" y="386" type="line"/>
      <point x="869" y="368" smooth="yes"/>
      <point x="914" y="320" smooth="yes"/>
      <point x="914" y="257" type="curve" smooth="yes"/>
      <point x="914" y="43" type="line"/>
      <point x="863" y="43" type="line"/>
      <point x="863" y="257" type="line" smooth="yes"/>
      <point x="863" y="314"/>
      <point x="835" y="359"/>
      <point x="788" y="379" type="curve"/>
    </contour>
  </outline>
</glyph>
